<svg width="162" height="31" viewBox="0 0 162 31" fill="none" xmlns="http://www.w3.org/2000/svg">
<path d="M0.823836 24.8123L0.768347 25.0372H1H4.80459H4.94602L4.98055 24.9001L6.21422 19.9987H14.9458L16.1795 24.9001L16.214 25.0372H16.3555H20.1943H20.4263L20.3704 24.8121L14.5436 1.33333L14.5094 1.19558H14.3675H6.79257H6.65045L6.61641 1.33357L0.823836 24.8123ZM23.3593 24.8558V25.0372H23.5407H27.3453H27.5268V24.8558V1.37703V1.19558H27.3453H23.5407H23.3593V1.37703V24.8558ZM41.1926 22.4603L41.1934 22.4614C42.6588 24.4468 45.2189 25.4143 48.8115 25.4143C49.6831 25.4143 50.3564 25.3584 50.8192 25.2395L53.7979 30.1259L53.8824 30.2644L54.0295 30.1959L57.5598 28.5506L57.7454 28.4642L57.6373 28.2903L54.8495 23.81C56.136 22.8987 57.0588 21.607 57.6205 19.945C58.2237 18.2275 58.5215 15.9887 58.5215 13.2364C58.5215 9.06421 57.8122 5.94542 56.3633 3.91175C54.8995 1.83408 52.3623 0.818554 48.8115 0.818554C45.2604 0.818554 42.7127 1.83416 41.2261 3.91063L41.2254 3.91175C39.7767 5.96783 39.0672 9.09768 39.0672 13.2707C39.0672 17.4196 39.7649 20.4943 41.1926 22.4603ZM53.0765 19.8626L53.076 19.8635C52.3679 21.0865 50.9729 21.7267 48.8115 21.7267C46.6522 21.7267 45.2442 21.0763 44.5126 19.8291C43.761 18.5245 43.3717 16.3378 43.3717 13.2364C43.3717 10.1363 43.772 7.91346 44.5479 6.53902C45.3052 5.19753 46.7049 4.50618 48.8115 4.50618C50.9183 4.50618 52.3051 5.19755 53.0396 6.53707L53.0407 6.53902C53.8166 7.91334 54.217 10.1474 54.217 13.2707C54.217 16.396 53.8274 18.5817 53.0765 19.8626ZM76.0006 1.19558H75.8191V1.37703V17.3494C75.8191 18.8386 75.4277 19.9227 74.676 20.6369C73.9225 21.3527 72.7758 21.7267 71.202 21.7267C69.6282 21.7267 68.4815 21.3527 67.728 20.6369C66.9763 19.9227 66.5849 18.8386 66.5849 17.3494V1.37703V1.19558H66.4034H62.5646H62.3831V1.37703V17.2809C62.3831 20.0745 63.1106 22.1564 64.6034 23.4833L64.6046 23.4844C66.0902 24.7813 68.2886 25.4143 71.1677 25.4143C74.0693 25.4143 76.2793 24.7815 77.7651 23.4844L77.7653 23.4842C79.2815 22.1575 80.0209 20.0753 80.0209 17.2809V1.37703V1.19558H79.8394H76.0006ZM84.8813 24.8558V25.0372H85.0627H88.8673H89.0488V24.8558V1.37703V1.19558H88.8673H85.0627H84.8813V1.37703V24.8558ZM107.429 25.0372H107.611V24.8558V21.4625V21.2811H107.429H98.2536V1.37703V1.19558H98.0722H94.2676H94.0861V1.37703V24.8558V25.0372H94.2676H107.429ZM123.697 25.0372H123.878V24.8558V21.4625V21.2811H123.697H114.521V1.37703V1.19558H114.34H110.535H110.354V1.37703V24.8558V25.0372H110.535H123.697ZM126.621 24.8558V25.0372H126.803H130.607H130.789V24.8558V1.37703V1.19558H130.607H126.803H126.621V1.37703V24.8558ZM139.994 24.8558V16.674H145.208L148.556 24.924L148.602 25.0372H148.724H152.905H153.178L153.073 24.7855L149.266 15.7248C150.499 15.1192 151.436 14.2568 152.069 13.1372C152.728 11.9722 153.053 10.5398 153.053 8.84911C153.053 6.32746 152.381 4.40366 151.007 3.11282C149.636 1.82397 147.595 1.19558 144.919 1.19558H136.007H135.826V1.37703V24.8558V25.0372H136.007H139.812H139.994V24.8558ZM157.014 24.8558V25.0372H157.195H161H161.181V24.8558V1.37703V1.19558H161H157.195H157.014V1.37703V24.8558ZM14.1026 16.2768H7.05811L9.88264 4.74611H11.3113L14.1026 16.2768ZM144.919 4.84893C146.237 4.84893 147.193 5.19206 147.822 5.84707C148.451 6.50349 148.782 7.50421 148.782 8.88338C148.782 10.1557 148.47 11.1632 147.863 11.9228C147.269 12.6432 146.324 13.0207 144.988 13.0207H139.994V4.84893H144.919Z" fill="url(#paint0_linear_214_3931)" stroke="url(#paint1_linear_214_3931)" stroke-width="0.362893"/>
<defs>
<linearGradient id="paint0_linear_214_3931" x1="61.5599" y1="-3.26572" x2="61.5599" y2="29.394" gradientUnits="userSpaceOnUse">
<stop stop-color="#F5F5F5" stop-opacity="0.6"/>
<stop offset="1" stop-color="#F5F5F5" stop-opacity="0.1"/>
</linearGradient>
<linearGradient id="paint1_linear_214_3931" x1="61.5599" y1="-3.26572" x2="61.5599" y2="29.394" gradientUnits="userSpaceOnUse">
<stop stop-color="#F5F5F5" stop-opacity="0.6"/>
<stop offset="1" stop-color="#F5F5F5" stop-opacity="0.1"/>
</linearGradient>
</defs>
</svg>
