<svg width="31" height="30" viewBox="0 0 31 30" fill="none" xmlns="http://www.w3.org/2000/svg">
<rect x="0.5" width="30" height="30" rx="10" fill="url(#paint0_linear_223_4676)"/>
<path d="M14.6134 6.91329C15.0779 7.29512 15.3904 7.79166 15.4923 8.38986C15.4953 8.46315 15.4964 8.53654 15.4963 8.6099C15.4963 8.65353 15.4963 8.69715 15.4963 8.7421C15.4961 8.78934 15.4959 8.83658 15.4957 8.88383C15.4956 8.93245 15.4956 8.98106 15.4956 9.02968C15.4954 9.15724 15.4951 9.28479 15.4947 9.41235C15.4943 9.54267 15.4942 9.67299 15.494 9.80332C15.4936 10.0587 15.493 10.3141 15.4923 10.5695C15.663 10.5706 15.8337 10.57 16.0045 10.568C16.0625 10.5676 16.1205 10.5676 16.1785 10.568C16.5078 10.5801 16.5078 10.5801 16.813 10.4821C16.8747 10.4209 16.9219 10.3613 16.9688 10.2883C17.0013 10.2521 17.0013 10.2521 17.0343 10.2151C17.0512 10.195 17.068 10.1749 17.0853 10.1543C17.2101 10.0093 17.3452 9.87624 17.4812 9.74186C17.5783 9.64356 17.6687 9.54106 17.7585 9.43617C17.8314 9.35273 17.9089 9.27555 17.9884 9.19845C17.9494 9.08863 17.9009 8.98994 17.842 8.88987C17.8279 8.86601 17.8139 8.84215 17.7994 8.81757C17.7701 8.76825 17.7405 8.71908 17.7107 8.67008C17.6967 8.64617 17.6828 8.62226 17.6684 8.59763C17.6556 8.57629 17.6428 8.55495 17.6296 8.53296C17.5737 8.38727 17.588 8.27999 17.6505 8.13883C17.6729 8.10026 17.6954 8.06169 17.7185 8.02195C17.7366 7.9905 17.7366 7.9905 17.7551 7.95841C17.7806 7.91424 17.8064 7.87019 17.8323 7.82627C17.8716 7.7598 17.9102 7.693 17.9487 7.6261C18.0192 7.50477 18.09 7.38395 18.1641 7.26486C18.1817 7.23114 18.1817 7.23114 18.1997 7.19675C18.2582 7.09595 18.2996 7.03088 18.4142 6.99646C18.5072 6.98729 18.5971 6.98648 18.6905 6.98855C18.7243 6.98848 18.758 6.98841 18.7928 6.98834C18.864 6.98848 18.9352 6.98923 19.0064 6.99054C19.1153 6.99239 19.2242 6.99199 19.3332 6.9913C19.4024 6.99171 19.4716 6.99226 19.5409 6.99294C19.5734 6.99281 19.606 6.99267 19.6395 6.99253C19.8641 6.9983 19.8641 6.9983 19.9703 7.09381C19.9986 7.14367 19.9986 7.14367 20.0274 7.19454C20.0496 7.23076 20.0717 7.26698 20.0945 7.3043C20.1284 7.36445 20.1284 7.36445 20.163 7.42581C20.1813 7.45808 20.1813 7.45808 20.1999 7.49101C20.2385 7.5591 20.2769 7.6273 20.3153 7.69552C20.354 7.76422 20.3928 7.8329 20.4317 7.90154C20.4667 7.96343 20.5016 8.02539 20.5365 8.08735C20.5816 8.17358 20.5816 8.17358 20.6251 8.21407C20.6659 8.49842 20.5383 8.67852 20.3922 8.915C20.3705 8.95132 20.3488 8.98765 20.3264 9.02507C19.9851 9.59234 19.9851 9.59234 19.8868 9.69064C19.839 9.6939 19.791 9.69477 19.743 9.69463C19.7125 9.69462 19.682 9.69462 19.6506 9.69462C19.6174 9.69444 19.5842 9.69426 19.5499 9.69407C19.516 9.69402 19.482 9.69397 19.4471 9.69392C19.338 9.69372 19.229 9.69328 19.12 9.69283C19.0468 9.69266 18.9736 9.6925 18.9004 9.69235C18.7387 9.69201 18.577 9.69151 18.4153 9.69087C18.2588 9.68116 18.2588 9.68116 18.125 9.74996C18.0995 9.77679 18.074 9.80362 18.0477 9.83126C18.0198 9.86036 17.992 9.88945 17.9632 9.91943C17.8752 10.0154 17.7899 10.1133 17.7052 10.2122C17.6213 10.3055 17.5327 10.3936 17.4434 10.4817C17.3068 10.6166 17.1773 10.7539 17.0545 10.9015C16.989 10.9725 16.9304 11.0225 16.8325 11.035C16.7953 11.0348 16.7953 11.0348 16.7575 11.0346C16.7289 11.0345 16.7004 11.0345 16.671 11.0345C16.6412 11.0342 16.6113 11.0338 16.5806 11.0334C16.5393 11.0333 16.5393 11.0333 16.4972 11.0332C16.3944 11.0329 16.2916 11.0319 16.1888 11.031C15.844 11.0288 15.844 11.0288 15.4923 11.0266C15.4923 11.6299 15.4923 12.2331 15.4923 12.8547C16.2172 12.9337 16.2172 12.9337 16.8543 12.6536C17.0236 12.4961 17.1701 12.3174 17.3144 12.137C17.4017 12.033 17.4958 11.9485 17.5999 11.8619C17.7449 11.7373 17.8763 11.5978 18.0103 11.4616C18.095 11.3756 18.1798 11.2899 18.266 11.2053C18.3098 11.1619 18.3527 11.1175 18.3934 11.0712C18.441 11.0215 18.441 11.0215 18.5509 10.9563C18.6492 10.9555 18.7433 10.9668 18.8409 10.9783C19.0386 10.9979 19.2103 11.0027 19.3946 10.9211C19.6324 10.6749 19.7715 10.3491 19.9069 10.0385C19.9535 9.94412 19.9822 9.89591 20.0626 9.83126C20.1326 9.81645 20.1326 9.81645 20.2132 9.81427C20.2435 9.81325 20.2738 9.81224 20.305 9.8112C20.3376 9.81075 20.3702 9.8103 20.4038 9.80984C20.4375 9.80924 20.4712 9.80864 20.5059 9.80802C20.5772 9.80702 20.6485 9.80633 20.7198 9.80592C20.8287 9.8049 20.9374 9.80163 21.0462 9.7983C21.1155 9.79761 21.1849 9.79706 21.2542 9.79665C21.2866 9.79535 21.319 9.79405 21.3524 9.79271C21.4891 9.79412 21.5747 9.79609 21.6736 9.89619C21.7287 9.97775 21.7752 10.0603 21.8204 10.1477C21.8443 10.1861 21.8682 10.2245 21.8928 10.2641C21.9614 10.3796 22.0295 10.4953 22.0973 10.6113C22.1094 10.6315 22.1215 10.6518 22.134 10.6727C22.1697 10.7323 22.2048 10.7923 22.2398 10.8523C22.2605 10.8875 22.2813 10.9227 22.3027 10.9589C22.3545 11.0772 22.3646 11.1447 22.3477 11.2727C22.2989 11.3831 22.2989 11.3831 22.2309 11.4999C22.2188 11.5209 22.2067 11.5419 22.1943 11.5635C22.1688 11.6077 22.143 11.6517 22.1171 11.6956C22.0778 11.7621 22.0392 11.8289 22.0006 11.8958C21.9302 12.0171 21.8594 12.138 21.7852 12.257C21.7735 12.2795 21.7618 12.302 21.7497 12.3252C21.6912 12.4259 21.6498 12.491 21.5352 12.5254C21.4422 12.5346 21.3523 12.5354 21.2589 12.5333C21.2251 12.5334 21.1914 12.5335 21.1566 12.5336C21.0854 12.5334 21.0142 12.5327 20.943 12.5314C20.834 12.5295 20.7252 12.5299 20.6162 12.5306C20.547 12.5302 20.4778 12.5296 20.4085 12.529C20.376 12.5291 20.3434 12.5292 20.3099 12.5294C20.085 12.5236 20.085 12.5236 19.9782 12.4261C19.9597 12.3935 19.9411 12.3609 19.922 12.3274C19.9018 12.2956 19.8816 12.2638 19.8608 12.2311C19.7961 12.1204 19.7314 12.0098 19.6671 11.8989C19.6442 11.86 19.6214 11.8212 19.5979 11.7811C19.5763 11.7441 19.5547 11.707 19.5325 11.6689C19.5128 11.635 19.493 11.6011 19.4727 11.5663C19.4298 11.4836 19.4298 11.4836 19.4298 11.4133C19.1439 11.3693 18.8683 11.3488 18.622 11.5221C18.4099 11.7097 18.2231 11.9185 18.0363 12.131C17.9445 12.2315 17.8471 12.3186 17.7431 12.4061C17.599 12.5315 17.4675 12.6703 17.3336 12.8064C17.2761 12.8648 17.2185 12.9231 17.1608 12.9813C17.1357 13.0068 17.1106 13.0323 17.0848 13.0586C17.0581 13.0841 17.0315 13.1096 17.004 13.1359C16.9722 13.1678 16.9405 13.1996 16.9078 13.2324C16.7597 13.3347 16.6631 13.3347 16.4879 13.3289C16.4625 13.3287 16.4372 13.3285 16.4111 13.3284C16.3172 13.3274 16.2233 13.325 16.1295 13.3227C15.8141 13.3173 15.8141 13.3173 15.4923 13.3117C15.4923 13.8686 15.4923 14.4255 15.4923 14.9992C16.2232 14.9992 16.9541 14.9992 17.7071 14.9992C17.7071 14.6512 17.7071 14.3031 17.7071 13.9445C17.8126 13.7688 17.8126 13.7688 17.9087 13.7327C18.055 13.7339 18.1539 13.7839 18.2784 13.8538C18.3026 13.8667 18.3267 13.8797 18.3516 13.893C18.43 13.9353 18.508 13.9784 18.586 14.0214C18.64 14.0508 18.6941 14.08 18.7482 14.1092C18.8813 14.1813 19.014 14.254 19.1467 14.3269C19.2491 14.383 19.3519 14.4385 19.4548 14.4939C20.3648 14.985 20.3648 14.985 20.4845 15.1047C20.4976 15.2058 20.4976 15.2058 20.4845 15.3156C20.3898 15.4277 20.2888 15.4936 20.1598 15.5616C20.1233 15.581 20.0869 15.6004 20.0493 15.6204C20.0102 15.6409 19.9711 15.6614 19.9307 15.6826C19.869 15.7154 19.8072 15.7482 19.7455 15.781C19.682 15.8147 19.6184 15.8484 19.5549 15.882C19.3996 15.9643 19.2451 16.0481 19.0907 16.132C18.9858 16.189 18.8808 16.2457 18.7758 16.3023C18.6581 16.366 18.5411 16.4305 18.4248 16.4965C18.4008 16.5099 18.3768 16.5233 18.3521 16.5371C18.2907 16.5715 18.2295 16.6064 18.1684 16.6413C18.0381 16.6953 17.9522 16.7085 17.8126 16.6867C17.7071 16.5109 17.7071 16.5109 17.7071 15.4563C16.9762 15.4563 16.2453 15.4563 15.4923 15.4563C15.4923 15.8275 15.4923 16.1988 15.4923 16.5813C15.5801 16.5756 15.6678 16.5698 15.7583 16.564C16.7897 16.5109 16.7897 16.5109 17.0464 16.7306C17.1257 16.8169 17.1977 16.9059 17.2659 17.0012C17.3638 17.1309 17.4831 17.2396 17.5994 17.3525C17.6408 17.3945 17.6822 17.4366 17.7235 17.4787C17.808 17.5636 17.8954 17.6424 17.9869 17.7199C18.0884 17.8071 18.1761 17.8982 18.2625 18.0004C18.5743 18.3652 18.5743 18.3652 19.0195 18.4986C19.1578 18.4999 19.2921 18.4935 19.4298 18.4797C19.4392 18.4546 19.4487 18.4295 19.4585 18.4037C19.5324 18.2263 19.6318 18.0623 19.7264 17.8952C19.747 17.8583 19.7676 17.8214 19.7888 17.7834C19.8088 17.7481 19.8287 17.7127 19.8493 17.6763C19.8765 17.628 19.8765 17.628 19.9043 17.5787C19.9534 17.5012 19.9923 17.4479 20.0626 17.3899C20.1326 17.375 20.1326 17.375 20.2132 17.3729C20.2435 17.3718 20.2738 17.3708 20.305 17.3698C20.3376 17.3693 20.3702 17.3689 20.4038 17.3684C20.4544 17.3675 20.4544 17.3675 20.5059 17.3666C20.5772 17.3656 20.6485 17.3649 20.7198 17.3645C20.8287 17.3635 20.9374 17.3602 21.0462 17.3569C21.1155 17.3562 21.1849 17.3557 21.2542 17.3552C21.2866 17.3539 21.319 17.3526 21.3524 17.3513C21.4891 17.3527 21.5747 17.3547 21.6736 17.4548C21.7287 17.5363 21.7752 17.6188 21.8204 17.7063C21.8443 17.7447 21.8682 17.7831 21.8928 17.8227C21.9614 17.9382 22.0295 18.0539 22.0973 18.1699C22.1094 18.1901 22.1215 18.2104 22.134 18.2313C22.1697 18.2909 22.2048 18.3509 22.2398 18.4109C22.2605 18.4461 22.2813 18.4812 22.3027 18.5175C22.3545 18.6358 22.3646 18.7033 22.3477 18.8313C22.2989 18.9417 22.2989 18.9417 22.2309 19.0585C22.2188 19.0795 22.2067 19.1005 22.1943 19.1221C22.1688 19.1663 22.143 19.2103 22.1171 19.2542C22.0778 19.3207 22.0392 19.3875 22.0006 19.4544C21.9302 19.5757 21.8594 19.6965 21.7852 19.8156C21.7735 19.8381 21.7618 19.8606 21.7497 19.8837C21.6912 19.9845 21.6498 20.0496 21.5352 20.084C21.4422 20.0932 21.3523 20.094 21.2589 20.0919C21.2082 20.092 21.2082 20.092 21.1566 20.0922C21.0854 20.092 21.0142 20.0913 20.943 20.09C20.834 20.0881 20.7252 20.0885 20.6162 20.0892C20.547 20.0888 20.4778 20.0882 20.4085 20.0875C20.376 20.0877 20.3434 20.0878 20.3099 20.088C20.0857 20.0822 20.0857 20.0822 19.9769 19.9857C19.9198 19.8821 19.8693 19.7788 19.8225 19.6701C19.6385 19.2285 19.6385 19.2285 19.2965 18.9344C19.1499 18.9178 19.0111 18.9273 18.8644 18.9387C18.6747 18.9501 18.5483 18.9566 18.3914 18.8403C18.2698 18.7311 18.1615 18.6103 18.0554 18.4861C17.9402 18.3543 17.8141 18.2334 17.6895 18.1106C17.6452 18.0655 17.6009 18.0205 17.5566 17.9754C17.4686 17.8869 17.3775 17.805 17.2819 17.7247C17.1874 17.6438 17.1134 17.5639 17.0413 17.4626C16.8859 17.2552 16.746 17.0997 16.4831 17.0461C16.1524 17.0086 15.8252 17.0286 15.4923 17.0383C15.4923 17.6416 15.4923 18.2449 15.4923 18.8664C15.9424 18.8567 15.9424 18.8567 16.3925 18.8442C16.9061 18.8346 16.9061 18.8346 17.0721 18.9774C17.1304 19.0452 17.1304 19.0452 17.1798 19.1125C17.2135 19.1483 17.2476 19.1838 17.2819 19.2189C17.312 19.2527 17.3421 19.2865 17.3731 19.3213C17.4845 19.4452 17.597 19.567 17.7159 19.6838C17.8299 19.796 17.9353 19.9136 18.0396 20.0348C18.1015 20.1057 18.1666 20.1724 18.2345 20.2375C18.2693 20.2259 18.3041 20.2143 18.3399 20.2024C18.3904 20.1985 18.441 20.1964 18.4917 20.1956C18.5374 20.1947 18.5374 20.1947 18.5841 20.1939C18.7231 20.1923 18.8621 20.1909 19.0011 20.19C19.0744 20.1895 19.1478 20.1885 19.2211 20.1872C19.3269 20.1852 19.4326 20.1845 19.5384 20.184C19.5712 20.1832 19.604 20.1824 19.6377 20.1815C19.8645 20.1823 19.8645 20.1823 19.971 20.2781C19.9896 20.3111 20.0082 20.3441 20.0274 20.3781C20.0483 20.4119 20.0692 20.4456 20.0907 20.4803C20.1116 20.517 20.1325 20.5537 20.154 20.5915C20.1771 20.6317 20.2001 20.6719 20.2238 20.7134C20.2477 20.7554 20.2716 20.7975 20.2955 20.8396C20.3428 20.9225 20.3901 21.0053 20.4375 21.0881C20.4583 21.1248 20.4792 21.1614 20.5006 21.1991C20.5399 21.2666 20.5818 21.3327 20.6251 21.3977C20.651 21.6353 20.5964 21.765 20.4691 21.9624C20.4533 21.9879 20.4376 22.0134 20.4214 22.0396C20.3887 22.0925 20.3558 22.1452 20.3227 22.1978C20.2747 22.2746 20.2282 22.3521 20.1822 22.4301C20.168 22.4542 20.1537 22.4783 20.1391 22.5032C20.1254 22.5263 20.1118 22.5494 20.0977 22.5732C19.9681 22.7929 19.9681 22.7929 19.8868 22.8742C19.821 22.8848 19.821 22.8848 19.7402 22.8872C19.7099 22.8883 19.6796 22.8893 19.6484 22.8903C19.6156 22.8909 19.5828 22.8916 19.549 22.8922C19.4984 22.8932 19.4984 22.8932 19.4467 22.8942C19.3752 22.8953 19.3037 22.8962 19.2322 22.8969C19.1591 22.8979 19.086 22.8996 19.0129 22.902C18.9074 22.9054 18.802 22.9067 18.6964 22.9076C18.6639 22.909 18.6314 22.9104 18.5979 22.9119C18.4609 22.911 18.3749 22.9096 18.2757 22.8094C18.2206 22.7278 18.1741 22.6453 18.129 22.5578C18.1051 22.5194 18.0812 22.4809 18.0566 22.4413C17.988 22.3259 17.9199 22.2101 17.8521 22.0942C17.84 22.0739 17.8279 22.0537 17.8154 22.0328C17.7797 21.9732 17.7446 21.9132 17.7096 21.8532C17.6888 21.818 17.6681 21.7828 17.6467 21.7466C17.5957 21.6301 17.5867 21.5587 17.6016 21.4328C17.6383 21.3498 17.6383 21.3498 17.6887 21.2711C17.7065 21.2422 17.7242 21.2134 17.7425 21.1837C17.7807 21.1239 17.8188 21.0641 17.8571 21.0044C17.8748 20.9756 17.8924 20.9469 17.9106 20.9173C17.9272 20.8914 17.9438 20.8655 17.9608 20.8388C17.9973 20.7648 17.9973 20.7648 17.9623 20.6896C17.9066 20.6073 17.8426 20.5435 17.7708 20.4748C17.6697 20.3761 17.5725 20.277 17.4808 20.1694C17.3578 20.0259 17.2242 19.8947 17.0898 19.7619C16.9734 19.644 16.8655 19.5198 16.7579 19.3938C16.6874 19.3233 16.5469 19.3496 16.4501 19.3475C16.4229 19.3468 16.3956 19.346 16.3675 19.3453C16.2801 19.343 16.1927 19.3409 16.1053 19.3388C16.0462 19.3373 15.9871 19.3358 15.9279 19.3342C15.7827 19.3305 15.6375 19.3269 15.4923 19.3234C15.4926 19.3564 15.4929 19.3894 15.4932 19.4234C15.4961 19.7357 15.4982 20.0481 15.4996 20.3604C15.5003 20.521 15.5013 20.6815 15.5029 20.8421C15.5044 20.9973 15.5053 21.1525 15.5056 21.3078C15.5059 21.3667 15.5064 21.4256 15.5071 21.4845C15.5145 22.0716 15.3878 22.5857 14.9715 23.028C14.8205 23.1682 14.6561 23.2734 14.4727 23.3664C14.4379 23.3844 14.4379 23.3844 14.4023 23.4028C14.0292 23.5598 13.5356 23.5061 13.1659 23.3733C12.744 23.195 12.4252 22.9419 12.2227 22.5227C12.1515 22.3272 12.0982 22.1265 12.047 21.925C12.0011 21.9334 12.0011 21.9334 11.9544 21.9419C11.3458 22.0358 10.7746 21.8678 10.2773 21.5152C9.88389 21.1956 9.62871 20.6982 9.55087 20.2024C9.53664 19.9745 9.54446 19.7589 9.58602 19.5344C9.56558 19.5305 9.54514 19.5266 9.52409 19.5226C9.14152 19.4091 8.85618 18.9812 8.67196 18.6555C8.33232 18.0138 8.29043 17.2758 8.49618 16.5813C8.57978 16.35 8.69419 16.1478 8.83607 15.9475C8.88186 15.8797 8.91832 15.8114 8.95321 15.7375C8.93336 15.7283 8.91351 15.7191 8.89306 15.7096C8.34053 15.4183 7.97239 14.8083 7.78083 14.2299C7.55656 13.4727 7.59377 12.7088 7.95444 12.004C8.17379 11.6033 8.53538 11.155 8.96461 10.9785C9.09423 10.9242 9.17485 10.8852 9.26962 10.7805C9.31644 10.6006 9.3052 10.4133 9.3034 10.2288C9.29865 9.69292 9.56712 9.19787 9.92861 8.81561C10.2828 8.45767 10.7363 8.2095 11.2384 8.14376C11.2423 8.11317 11.2462 8.08258 11.2502 8.05106C11.3435 7.5782 11.7053 7.15944 12.0821 6.87814C12.2418 6.78254 12.403 6.70447 12.5743 6.63204C12.6041 6.61931 12.6339 6.60657 12.6645 6.59345C13.3083 6.37127 14.0736 6.52139 14.6134 6.91329ZM12.6798 7.08907C12.6481 7.10321 12.6165 7.11735 12.5839 7.13192C12.1795 7.33245 11.9263 7.63493 11.7306 8.03829C11.7306 8.0615 11.7306 8.0847 11.7306 8.10861C11.7922 8.115 11.7922 8.115 11.8551 8.12151C11.9095 8.12745 11.964 8.1334 12.0184 8.13937C12.0454 8.14213 12.0725 8.1449 12.1003 8.14774C12.4405 8.1857 12.4405 8.1857 12.5391 8.28439C12.5556 8.47314 12.5556 8.47314 12.4947 8.55547C12.4337 8.60079 12.4337 8.60079 12.3678 8.60464C12.3431 8.60047 12.3185 8.5963 12.2931 8.592C12.2649 8.58797 12.2367 8.58394 12.2076 8.57978C12.1778 8.57511 12.148 8.57045 12.1173 8.56564C11.5597 8.48313 11.0118 8.58463 10.544 8.90621C10.1758 9.19298 9.86949 9.56464 9.77004 10.032C9.75057 10.2222 9.75698 10.4139 9.7618 10.6047C9.78257 10.6022 9.80333 10.5998 9.82472 10.5972C10.054 10.5719 10.2805 10.5628 10.5111 10.563C10.5463 10.5629 10.5815 10.5629 10.6178 10.5629C10.8776 10.5647 11.1244 10.5851 11.379 10.6399C11.4264 10.9026 11.4264 10.9026 11.3728 10.9837C11.2851 11.0423 11.2411 11.0305 11.1373 11.0156C10.3356 10.9288 9.62499 11.0133 8.97079 11.5166C8.5485 11.88 8.17402 12.3917 8.10946 12.9602C8.05583 13.678 8.2304 14.3326 8.66756 14.9113C9.02685 15.3279 9.47305 15.5591 10.0079 15.6672C10.0148 15.8801 10.0148 15.8801 10.0079 15.9484C9.93758 16.0188 9.93758 16.0188 9.80795 16.0254C9.70397 16.0244 9.63371 16.0124 9.53109 15.9836C9.41364 15.9718 9.41364 15.9718 9.34762 16.0291C8.95092 16.451 8.82852 17.0031 8.83306 17.5648C8.85097 18.1268 9.1097 18.5883 9.5061 18.9788C9.59738 19.0512 9.69137 19.099 9.79696 19.1477C9.81318 19.1234 9.82941 19.0992 9.84612 19.0742C10.0615 18.7638 10.3199 18.4545 10.6759 18.3039C10.7945 18.3083 10.7945 18.3083 10.8868 18.3391C10.9388 18.4431 10.9387 18.5048 10.922 18.6203C10.8469 18.6975 10.7782 18.7581 10.6934 18.8225C10.3695 19.0839 10.0585 19.3808 10.0079 19.8156C9.9674 20.253 10.1297 20.6329 10.3946 20.9758C10.6827 21.2926 11.0874 21.4641 11.5085 21.5144C11.8992 21.5314 12.2446 21.4033 12.5522 21.167C12.6901 21.0391 12.7994 20.8943 12.9088 20.7418C12.9962 20.6594 12.9962 20.6594 13.1253 20.6429C13.2423 20.6594 13.2423 20.6594 13.3126 20.7297C13.3339 20.8414 13.3295 20.9125 13.2703 21.0108C13.2161 21.0832 13.1598 21.1527 13.1016 21.2219C13.0802 21.2507 13.0587 21.2794 13.0366 21.3091C12.9536 21.4064 12.8676 21.4734 12.7633 21.5471C12.7126 21.5832 12.7126 21.5832 12.6608 21.6201C12.5743 21.6789 12.5743 21.6789 12.504 21.7141C12.5434 22.0969 12.6469 22.4384 12.9281 22.7138C13.232 22.9569 13.5718 23.0487 13.9578 23.0339C14.2973 22.9834 14.5836 22.7947 14.7891 22.5227C15.0996 22.0396 15.0806 21.5065 15.0784 20.9529C15.0784 20.8842 15.0784 20.8156 15.0784 20.7469C15.0784 20.5619 15.078 20.3769 15.0775 20.1918C15.0771 19.9979 15.077 19.8041 15.077 19.6102C15.0767 19.2436 15.0762 18.8771 15.0755 18.5106C15.0747 18.093 15.0743 17.6755 15.0739 17.2579C15.0732 16.3996 15.072 15.5412 15.0704 14.6828C14.9871 14.6985 14.9038 14.7144 14.8206 14.7305C14.7973 14.7348 14.774 14.7392 14.75 14.7437C14.1847 14.8538 13.6987 15.1675 13.3236 15.5991C13.2423 15.6672 13.2423 15.6672 13.1126 15.6826C12.9962 15.6672 12.9962 15.6672 12.9259 15.5969C12.9061 15.5046 12.9061 15.5046 12.9259 15.3859C12.9959 15.28 13.0818 15.1937 13.172 15.1047C13.1941 15.0818 13.2162 15.0589 13.239 15.0353C13.6878 14.6012 14.2562 14.4129 14.8511 14.2762C14.8922 14.2667 14.9333 14.2573 14.9756 14.2475C15.0069 14.2404 15.0382 14.2332 15.0704 14.2258C15.072 13.5238 15.0733 12.8218 15.074 12.1198C15.0744 11.7938 15.0749 11.4678 15.0757 11.1419C15.0764 10.8575 15.0769 10.5732 15.077 10.2889C15.0771 10.1385 15.0773 9.98816 15.0778 9.83779C15.0783 9.69587 15.0785 9.55396 15.0783 9.41205C15.0784 9.36033 15.0785 9.3086 15.0788 9.25688C15.0822 8.58253 15.0015 7.99857 14.5431 7.47579C14.1735 7.11607 13.7804 6.97423 13.2747 6.97494C13.0605 6.97807 12.8768 7.00029 12.6798 7.08907ZM18.1143 8.22213C18.0775 8.39751 18.1776 8.52539 18.2633 8.67399C18.2821 8.70673 18.3009 8.73947 18.3203 8.77321C18.3398 8.80695 18.3594 8.84069 18.3795 8.87545C18.4092 8.92708 18.4092 8.92708 18.4395 8.97975C18.4882 9.06443 18.5371 9.14904 18.586 9.23361C19.173 9.31793 19.173 9.31793 19.7229 9.17891C19.8433 9.04169 19.9086 8.88369 19.9644 8.71146C19.9928 8.63441 20.0291 8.57468 20.0744 8.50645C20.1441 8.39645 20.1441 8.39645 20.1159 8.2918C20.0983 8.25455 20.0807 8.2173 20.0626 8.17892C20.053 8.15174 20.0435 8.12456 20.0337 8.09655C19.9479 7.85842 19.843 7.63502 19.6407 7.47579C18.8923 7.17727 18.4018 7.52865 18.1143 8.22213ZM20.0728 10.5581C19.9873 10.7222 19.9106 10.8861 19.8516 11.0617C19.8431 11.0846 19.8345 11.1075 19.8257 11.1311C19.7945 11.3721 20.0041 11.6668 20.1297 11.8599C20.2915 12.0604 20.4432 12.1171 20.6959 12.148C20.9767 12.1551 21.2389 12.1533 21.4606 11.9624C21.6376 11.7462 21.7976 11.4784 21.8556 11.2024C21.8196 11.0738 21.7526 10.9632 21.6861 10.8479C21.6673 10.8152 21.6485 10.7824 21.6291 10.7487C21.5998 10.6981 21.5998 10.6981 21.5699 10.6464C21.5501 10.612 21.5303 10.5776 21.5099 10.5421C21.4612 10.4575 21.4123 10.3729 21.3634 10.2883C20.6291 10.1669 20.6291 10.1669 20.0728 10.5581ZM18.1641 14.3664C18.1641 14.9349 18.1641 15.5034 18.1641 16.0891C18.516 15.9132 18.8659 15.7369 19.2122 15.5507C19.2524 15.5294 19.2926 15.5081 19.334 15.4861C19.3723 15.4655 19.4107 15.4449 19.4502 15.4237C19.4844 15.4054 19.5186 15.3872 19.5538 15.3683C19.6311 15.3215 19.6865 15.2773 19.7462 15.2102C19.4686 15.0372 19.1822 14.8827 18.8932 14.7299C18.816 14.689 18.7388 14.6479 18.6616 14.6068C18.6123 14.5806 18.563 14.5545 18.5136 14.5283C18.4907 14.5161 18.4677 14.5039 18.4441 14.4913C18.3515 14.4424 18.2637 14.3996 18.1641 14.3664ZM20.1156 18.0486C20.0645 18.1535 20.021 18.258 19.985 18.369C19.9565 18.4461 19.9203 18.5058 19.875 18.574C19.8053 18.684 19.8053 18.684 19.8335 18.7887C19.8599 18.8446 19.8599 18.8446 19.8868 18.9016C19.8963 18.9288 19.9059 18.9559 19.9157 18.9839C20.0015 19.2221 20.1064 19.4455 20.3087 19.6047C20.638 19.7361 21.0355 19.7424 21.3634 19.6047C21.6036 19.4001 21.7905 19.0705 21.8556 18.7609C21.8196 18.6324 21.7526 18.5218 21.6861 18.4065C21.6673 18.3738 21.6485 18.341 21.6291 18.3073C21.5998 18.2567 21.5998 18.2567 21.5699 18.205C21.5501 18.1706 21.5303 18.1362 21.5099 18.1007C21.4612 18.0161 21.4123 17.9314 21.3634 17.8469C20.6676 17.7397 20.6676 17.7397 20.1156 18.0486ZM18.1143 21.4057C18.0775 21.5811 18.1776 21.709 18.2633 21.8576C18.2821 21.8903 18.3009 21.9231 18.3203 21.9568C18.3398 21.9905 18.3594 22.0243 18.3795 22.059C18.4092 22.1107 18.4092 22.1107 18.4395 22.1633C18.4882 22.248 18.5371 22.3326 18.586 22.4172C19.173 22.5015 19.173 22.5015 19.7229 22.3625C19.8433 22.2253 19.9086 22.0673 19.9644 21.8951C19.9928 21.818 20.0291 21.7583 20.0744 21.69C20.1441 21.58 20.1441 21.58 20.1159 21.4754C20.0983 21.4381 20.0807 21.4009 20.0626 21.3625C20.053 21.3353 20.0435 21.3082 20.0337 21.2801C19.9479 21.042 19.843 20.8186 19.6407 20.6594C18.8923 20.3609 18.4018 20.7122 18.1143 21.4057Z" fill="#929FAD" stroke="#929FAD" stroke-width="0.5"/>
<path d="M13.2774 10.3248C13.4059 10.4789 13.3993 10.6303 13.396 10.8213C13.3957 10.8511 13.3954 10.8809 13.3951 10.9116C13.3898 11.1387 13.3614 11.3427 13.2774 11.5552C13.2684 11.5794 13.2594 11.6036 13.2502 11.6286C13.078 12.0283 12.7363 12.2916 12.3429 12.4495C11.8203 12.6416 11.8203 12.6416 11.5547 12.6099C11.458 12.5374 11.458 12.5374 11.4141 12.4341C11.4075 12.3243 11.4075 12.3243 11.4493 12.2232C11.5664 12.1523 11.6766 12.1227 11.8088 12.0876C12.1891 11.9862 12.5257 11.861 12.75 11.5201C12.8535 11.3298 12.891 11.1454 12.8968 10.9309C12.8977 10.9002 12.8985 10.8696 12.8994 10.838C12.9009 10.7739 12.902 10.7098 12.9027 10.6457C12.9101 10.4131 12.9101 10.4131 12.9909 10.3206C13.1016 10.2751 13.165 10.2865 13.2774 10.3248Z" fill="#929FAD" stroke="#929FAD" stroke-width="0.5"/>
<path d="M10.6055 14.4023C10.702 14.4384 10.793 14.4826 10.8845 14.5297C10.9093 14.5424 10.934 14.5551 10.9596 14.5682C11.3501 14.7744 11.6229 15.0668 11.7634 15.4943C11.8502 15.8751 11.8293 16.2751 11.7371 16.6523C11.7313 16.6761 11.7255 16.6999 11.7195 16.7244C11.684 16.8535 11.67 16.8918 11.5547 16.9687C11.4472 16.9799 11.3742 16.985 11.2778 16.9335C11.1912 16.7796 11.2306 16.602 11.2734 16.4392C11.3583 16.0839 11.3541 15.7068 11.168 15.3867C10.9753 15.0734 10.6173 14.9246 10.2891 14.789C10.2188 14.7187 10.2188 14.7187 10.2056 14.6176C10.2188 14.5078 10.2188 14.5078 10.2737 14.4221C10.397 14.343 10.4639 14.3719 10.6055 14.4023Z" fill="#929FAD" stroke="#929FAD" stroke-width="0.5"/>
<path d="M14.2507 19.1455C14.3688 19.2434 14.3979 19.268 14.4308 19.4224C14.4023 19.5344 14.4023 19.5344 14.3649 19.6025C14.2571 19.6617 14.1719 19.6506 14.0507 19.6399C13.9455 19.5756 13.9455 19.5756 13.8442 19.4905C13.5288 19.2391 13.2268 19.1077 12.8202 19.1477C12.495 19.2235 12.2459 19.3903 12.0248 19.6377C11.9413 19.7102 11.9413 19.7102 11.8139 19.7278C11.6952 19.7102 11.6952 19.7102 11.6271 19.6706C11.5675 19.5655 11.5671 19.5138 11.5898 19.3938C11.816 19.037 12.2558 18.7704 12.6603 18.6691C13.2615 18.5779 13.7716 18.7976 14.2507 19.1455Z" fill="#929FAD" stroke="#929FAD" stroke-width="0.5"/>
<defs>
<linearGradient id="paint0_linear_223_4676" x1="0.5" y1="0" x2="33.5291" y2="1.03141" gradientUnits="userSpaceOnUse">
<stop stop-color="#494949"/>
<stop offset="1" stop-color="#0A1C3B"/>
</linearGradient>
</defs>
</svg>
