<svg width="31" height="30" viewBox="0 0 31 30" fill="none" xmlns="http://www.w3.org/2000/svg">
<rect x="0.5" width="30" height="30" rx="10" fill="url(#paint0_linear_223_4588)"/>
<g clip-path="url(#clip0_223_4588)">
<path opacity="0.969" fill-rule="evenodd" clip-rule="evenodd" d="M23.9824 7.31836C23.9824 12.4277 23.9824 17.5371 23.9824 22.6465C23.813 23.267 23.4146 23.6596 22.7871 23.8242C17.6294 23.8592 12.4731 23.8474 7.31836 23.7891C6.76374 23.5977 6.41804 23.2169 6.28125 22.6465C6.25781 18.7676 6.25781 14.8887 6.28125 11.0098C6.3706 10.8491 6.50536 10.7964 6.68555 10.8516C6.79673 10.9036 6.86119 10.9915 6.87891 11.1152C6.89062 14.9356 6.90235 18.7558 6.91406 22.5762C7.04499 22.9731 7.32038 23.1899 7.74023 23.2266C12.6621 23.25 17.584 23.25 22.5059 23.2266C23.011 23.1785 23.2981 22.9031 23.3672 22.4004C23.3906 17.4551 23.3906 12.5098 23.3672 7.56445C23.2981 7.06175 23.011 6.78636 22.5059 6.73828C17.5011 6.70352 12.4972 6.71524 7.49414 6.77344C7.19192 6.87642 6.99856 7.0815 6.91406 7.38867C6.90235 8.05664 6.89062 8.72461 6.87891 9.39258C6.82408 9.6573 6.66587 9.7452 6.4043 9.65625C6.34985 9.61357 6.30883 9.56084 6.28125 9.49805C6.25781 8.77148 6.25781 8.04492 6.28125 7.31836C6.43945 6.69141 6.83203 6.29883 7.45898 6.14063C12.5683 6.11719 17.6777 6.11719 22.7871 6.14063C23.4146 6.30523 23.813 6.69781 23.9824 7.31836Z" fill="#929FAD"/>
<path opacity="0.92" fill-rule="evenodd" clip-rule="evenodd" d="M19.4824 7.28345C20.5138 7.27759 21.545 7.28345 22.5762 7.30102C22.7982 7.39269 22.8627 7.55089 22.7696 7.77563C22.7269 7.83008 22.6741 7.8711 22.6114 7.89868C21.5567 7.92212 20.502 7.92212 19.4473 7.89868C19.2411 7.79343 19.1884 7.63523 19.2891 7.42407C19.3418 7.35486 19.4063 7.30799 19.4824 7.28345Z" fill="#929FAD"/>
<path opacity="0.935" fill-rule="evenodd" clip-rule="evenodd" d="M13.752 7.3888C14.2857 7.29641 14.7427 7.43704 15.1231 7.81068C15.5033 7.43126 15.9603 7.29649 16.4941 7.40638C16.8987 7.4973 17.2854 7.63792 17.6543 7.82825C18.1887 8.14802 18.7161 8.47615 19.2363 8.81263C19.7881 9.30191 19.9756 9.90543 19.7988 10.6232C20.5871 10.8549 21.0852 11.3705 21.293 12.1701C21.3515 12.4503 21.3633 12.7316 21.3281 13.0138C21.9578 13.7664 22.0867 14.5984 21.7149 15.5099C21.6431 15.6359 21.5669 15.7589 21.4863 15.879C22.0651 16.6314 22.0827 17.3991 21.5391 18.1818C21.2967 18.4464 21.0096 18.6456 20.6777 18.7794C20.8802 19.9156 20.4467 20.6949 19.377 21.1173C19.2613 21.1483 19.1441 21.1717 19.0254 21.1876C18.4419 22.1354 17.5981 22.5104 16.4941 22.3126C15.9093 22.1495 15.4523 21.8155 15.1231 21.3107C14.4796 22.2187 13.6125 22.5409 12.5215 22.2775C11.9413 22.0873 11.5077 21.724 11.2207 21.1876C10.27 21.022 9.70161 20.4654 9.51563 19.5177C9.48661 19.2678 9.50419 19.0217 9.56837 18.7794C8.5713 18.3438 8.17873 17.5939 8.39063 16.5294C8.47315 16.288 8.5962 16.0713 8.75977 15.879C8.29973 15.1827 8.21183 14.4386 8.4961 13.6466C8.60915 13.4166 8.74977 13.2056 8.91798 13.0138C8.80928 12.0065 9.19014 11.2507 10.0606 10.7462C10.1843 10.6874 10.3132 10.6464 10.4473 10.6232C10.2706 9.90518 10.4581 9.30165 11.0098 8.81263C11.5606 8.47278 12.1113 8.13294 12.6621 7.7931C13.0143 7.61647 13.3776 7.48171 13.752 7.3888ZM14.0332 7.98646C14.4501 7.999 14.7021 8.20994 14.7891 8.61927C14.8184 9.29926 14.8125 9.97894 14.7715 10.6583C14.5574 10.5648 14.3347 10.5355 14.1035 10.5704C13.9828 10.6242 13.9242 10.718 13.9277 10.8517C13.9245 10.9506 13.9597 11.0326 14.0332 11.0978C14.3065 11.1222 14.535 11.2335 14.7188 11.4318C14.7491 11.4876 14.7725 11.5462 14.7891 11.6076C14.8125 14.5372 14.8125 17.4669 14.7891 20.3966C14.4977 21.4535 13.8122 21.8813 12.7324 21.6798C12.418 21.5723 12.1543 21.3907 11.9414 21.1349C11.8345 20.962 11.7231 20.7921 11.6074 20.6251C10.9068 20.6063 10.4322 20.2723 10.1836 19.6232C10.0918 19.2811 10.127 18.9529 10.2891 18.6388C10.3442 18.4586 10.2915 18.3238 10.1309 18.2345C9.20676 18.0785 8.83762 17.5453 9.02345 16.6349C9.06292 16.5383 9.11565 16.4504 9.18165 16.3712C9.2168 16.3478 9.25196 16.3478 9.28712 16.3712C9.6982 16.6586 10.1552 16.7875 10.6582 16.7579C10.8314 16.6752 10.8959 16.5405 10.8516 16.3536C10.8105 16.2658 10.7461 16.2013 10.6582 16.1603C9.63365 16.0908 9.05943 15.5459 8.93555 14.5255C8.9692 14.0481 9.16256 13.6497 9.51563 13.3302C9.54594 13.2744 9.56939 13.2158 9.58595 13.1544C9.43857 12.5727 9.56162 12.0571 9.95509 11.6076C10.651 11.0001 11.3483 11.0001 12.0469 11.6076C12.3303 11.9538 12.4827 12.3522 12.5039 12.8029C12.6797 12.9904 12.8555 12.9904 13.0313 12.8029C13.0978 11.7473 12.6349 11.0266 11.6426 10.6408C11.4686 10.5966 11.2929 10.5614 11.1152 10.5353C10.8928 9.85512 11.1155 9.38636 11.7832 9.12904C12.367 9.04293 12.7713 9.27144 12.9961 9.81458C13.0216 9.98164 13.0567 10.1457 13.1016 10.3068C13.3941 10.5012 13.5875 10.4309 13.6816 10.0958C13.6254 9.36596 13.2621 8.85619 12.5918 8.56654C13.0391 8.27903 13.5196 8.08568 14.0332 7.98646ZM16.1074 7.98646C16.6653 8.06501 17.1809 8.25837 17.6543 8.56654C16.9086 8.892 16.5629 9.46036 16.6172 10.2716C16.7335 10.4062 16.88 10.4472 17.0566 10.3947C17.1111 10.352 17.1521 10.2992 17.1797 10.2365C17.2527 9.44818 17.6805 9.07904 18.4629 9.12904C19.131 9.38721 19.3537 9.85596 19.1309 10.5353C17.9497 10.7086 17.2935 11.3883 17.1621 12.5743C17.1901 12.8922 17.3542 12.9977 17.6543 12.8908C17.6836 12.8615 17.7129 12.8321 17.7422 12.8029C17.7689 12.2042 18.0209 11.7296 18.4981 11.379C19.3906 10.9734 20.0878 11.1902 20.5899 12.0294C20.7261 12.3987 20.7496 12.7736 20.6602 13.1544C20.6767 13.2158 20.7002 13.2744 20.7305 13.3302C21.2728 13.8238 21.4252 14.4215 21.1875 15.1232C20.8712 15.8001 20.338 16.1458 19.5879 16.1603C19.3066 16.3595 19.3066 16.5587 19.5879 16.7579C20.1286 16.7884 20.615 16.6419 21.0469 16.3185C21.464 16.9995 21.3527 17.5796 20.7129 18.0587C20.5219 18.1446 20.3227 18.2031 20.1152 18.2345C19.995 18.2949 19.9364 18.3945 19.9395 18.5333C20.2789 19.2431 20.15 19.8467 19.5527 20.3439C19.2666 20.4995 18.9619 20.5932 18.6387 20.6251C18.4587 20.973 18.2127 21.266 17.9004 21.504C17.0995 21.9188 16.3905 21.7957 15.7734 21.1349C15.2487 20.2954 15.3483 19.5396 16.0723 18.8673C16.4261 18.64 16.8128 18.5111 17.2324 18.4806C17.3811 18.2948 17.3694 18.1191 17.1973 17.9533C16.5236 17.8849 15.9436 18.09 15.457 18.5685C15.4336 16.7404 15.4336 14.9122 15.457 13.0841C15.503 12.9325 15.5908 12.8094 15.7207 12.715C15.8833 12.6606 16.0474 12.6137 16.2129 12.5743C16.329 12.4409 16.3466 12.2944 16.2656 12.1349C16.2339 12.0927 16.1929 12.0634 16.1426 12.047C15.9114 12.0121 15.6887 12.0414 15.4746 12.1349C15.4336 10.9632 15.4278 9.79131 15.457 8.61927C15.5335 8.25561 15.7503 8.04467 16.1074 7.98646Z" fill="#929FAD"/>
<path opacity="0.916" fill-rule="evenodd" clip-rule="evenodd" d="M20.8887 8.47876C21.4631 8.4729 22.0373 8.47876 22.6114 8.49634C22.8178 8.60235 22.8706 8.76056 22.7696 8.97095C22.7063 9.03482 22.6302 9.07584 22.5411 9.09399C22.0137 9.11743 21.4864 9.11743 20.959 9.09399C20.7 8.97745 20.6472 8.79581 20.8008 8.54907C20.8358 8.52918 20.8651 8.50574 20.8887 8.47876Z" fill="#929FAD"/>
<path opacity="0.927" fill-rule="evenodd" clip-rule="evenodd" d="M10.2715 12.1686C10.4376 12.1353 10.5723 12.1821 10.6758 12.3092C10.7108 13.2186 11.162 13.7987 12.0294 14.0494C12.6073 14.138 13.0995 13.974 13.5059 13.5572C13.8864 13.469 14.0329 13.6154 13.9454 13.9967C13.5313 14.4339 13.0216 14.68 12.4161 14.735C12.1423 15.4722 11.615 15.8414 10.834 15.8424C10.6466 15.6549 10.6466 15.4674 10.834 15.2799C11.2634 15.2354 11.5798 15.0244 11.7833 14.6471C10.6633 14.2881 10.1067 13.5205 10.1133 12.3444C10.1494 12.2675 10.2021 12.2089 10.2715 12.1686Z" fill="#929FAD"/>
<path opacity="0.929" fill-rule="evenodd" clip-rule="evenodd" d="M19.6935 12.1701C19.7879 12.1643 19.8817 12.1702 19.9747 12.1877C20.0509 12.217 20.1036 12.2697 20.1329 12.3459C20.1692 13.2402 19.8118 13.9258 19.0607 14.4025C18.8634 14.4835 18.6759 14.5772 18.4982 14.6838C18.696 15.0409 19.0007 15.2401 19.4122 15.2814C19.5997 15.4689 19.5997 15.6565 19.4122 15.8439C18.631 15.8426 18.1036 15.4734 17.8302 14.7365C17.2329 14.6634 16.7231 14.4173 16.3009 13.9982C16.2365 13.6408 16.3829 13.4943 16.7404 13.5588C17.4221 14.1683 18.1486 14.2269 18.92 13.7346C19.3464 13.3588 19.5632 12.8842 19.5704 12.3107C19.6188 12.2684 19.6598 12.2215 19.6935 12.1701Z" fill="#929FAD"/>
<path opacity="0.927" fill-rule="evenodd" clip-rule="evenodd" d="M13.4004 16.1425C13.5458 16.1301 13.6864 16.1477 13.8222 16.1953C14.0246 16.411 14.0011 16.5985 13.7519 16.7578C12.701 16.8241 12.1913 17.3807 12.2226 18.4277C13.0492 18.8857 13.4066 19.5771 13.2949 20.5019C13.1137 20.6504 12.9437 20.6387 12.7851 20.4668C12.7207 19.4179 12.164 18.8613 11.1152 18.7968C10.9416 18.6336 10.9299 18.4578 11.08 18.2695C11.2395 18.221 11.4036 18.2034 11.5722 18.2168C11.6605 17.0623 12.2699 16.3708 13.4004 16.1425Z" fill="#929FAD"/>
<path opacity="0.932" fill-rule="evenodd" clip-rule="evenodd" d="M16.7402 16.4588C17.6783 16.4268 18.3638 16.8252 18.7969 17.6541C18.9008 17.941 18.977 18.234 19.0254 18.533C19.4062 18.4323 19.5761 18.5729 19.5352 18.9549C19.5188 19.0052 19.4895 19.0462 19.4473 19.078C18.4134 19.1392 17.8568 19.6841 17.7773 20.7127C17.6755 20.8764 17.529 20.9291 17.3379 20.8709C17.2596 20.8278 17.2069 20.7633 17.1797 20.6776C17.1703 19.794 17.5511 19.1377 18.3223 18.7088C18.3418 17.6675 17.8261 17.1108 16.7754 17.0389C16.6508 16.9848 16.5805 16.891 16.5645 16.7577C16.5864 16.6362 16.6449 16.5366 16.7402 16.4588Z" fill="#929FAD"/>
<path opacity="0.916" fill-rule="evenodd" clip-rule="evenodd" d="M7.70492 20.8538C8.23239 20.8479 8.75974 20.8538 9.28695 20.8713C9.49681 20.9453 9.57298 21.0918 9.51547 21.3108C9.48617 21.387 9.43343 21.4397 9.35726 21.469C8.78304 21.4924 8.20882 21.4924 7.63461 21.469C7.42024 21.3415 7.37922 21.1715 7.51156 20.9592C7.57752 20.9202 7.64197 20.8851 7.70492 20.8538Z" fill="#929FAD"/>
<path opacity="0.921" fill-rule="evenodd" clip-rule="evenodd" d="M7.63473 22.0491C8.68949 22.0432 9.74418 22.0491 10.7988 22.0667C11.005 22.1719 11.0577 22.3301 10.957 22.5413C10.9106 22.6111 10.8462 22.6521 10.7636 22.6643C9.7324 22.6878 8.70114 22.6878 7.66989 22.6643C7.35528 22.4777 7.34356 22.2726 7.63473 22.0491Z" fill="#929FAD"/>
</g>
<defs>
<linearGradient id="paint0_linear_223_4588" x1="0.5" y1="0" x2="33.5291" y2="1.03141" gradientUnits="userSpaceOnUse">
<stop stop-color="#494949"/>
<stop offset="1" stop-color="#0A1C3B"/>
</linearGradient>
<clipPath id="clip0_223_4588">
<rect width="18" height="18" fill="white" transform="translate(6 6)"/>
</clipPath>
</defs>
</svg>
