<svg width="31" height="30" viewBox="0 0 31 30" fill="none" xmlns="http://www.w3.org/2000/svg">
<rect x="0.5" width="30" height="30" rx="10" fill="url(#paint0_linear_223_4579)"/>
<g clip-path="url(#clip0_223_4579)">
<path d="M15.461 5C15.6027 5.04724 15.6172 5.08329 15.6942 5.20752C15.7273 5.26034 15.7273 5.26034 15.761 5.31423C15.7845 5.35233 15.8079 5.39043 15.8321 5.42969C15.8818 5.5092 15.9316 5.5887 15.9813 5.66818C16.0059 5.70758 16.0304 5.74697 16.0557 5.78756C16.1472 5.93381 16.2408 6.07861 16.335 6.22314C16.5137 6.49823 16.6906 6.77441 16.8672 7.05078C17.0589 7.35051 17.251 7.64984 17.4447 7.94826C17.6032 8.19285 17.7601 8.43847 17.9171 8.68408C18.1264 9.01171 18.3371 9.33842 18.5495 9.66413C18.7193 9.92492 18.8872 10.1869 19.0547 10.4492C19.307 10.844 19.5614 11.2373 19.8172 11.6298C19.9084 11.7699 19.9991 11.9104 20.0899 12.0508C20.2442 12.2894 20.3989 12.5278 20.5538 12.7661C20.5749 12.7987 20.596 12.8312 20.6178 12.8647C20.7267 13.0322 20.8358 13.1996 20.9453 13.3667C21.5555 14.2986 22.0904 15.212 22.3677 16.3013C22.3753 16.3311 22.383 16.3609 22.3908 16.3916C22.5161 16.912 22.546 17.424 22.5435 17.9565C22.5434 17.9894 22.5433 18.0223 22.5433 18.0561C22.5413 18.5304 22.5305 18.9909 22.4141 19.4531C22.4064 19.485 22.3986 19.5168 22.3906 19.5497C21.9215 21.4312 20.7952 23.0376 19.1254 24.0459C18.4555 24.4375 17.737 24.6995 16.9844 24.8828C16.9566 24.8898 16.9288 24.8968 16.9001 24.904C16.0201 25.1149 14.8921 25.1034 14.0157 24.8828C13.9679 24.8712 13.9679 24.8712 13.9191 24.8593C12.0376 24.3901 10.4312 23.2639 9.42294 21.5941C8.86441 20.6382 8.46761 19.4975 8.46088 18.3818C8.4606 18.3513 8.46032 18.3208 8.46004 18.2894C8.45117 17.0201 8.45117 17.0201 8.586 16.4844C8.59376 16.4525 8.60152 16.4207 8.60952 16.3878C8.87508 15.3228 9.35151 14.4281 9.95319 13.5184C10.1136 13.2757 10.2705 13.0309 10.4268 12.7856C10.6775 12.393 10.9305 12.0019 11.1849 11.6115C11.4517 11.2018 11.7162 10.7905 11.9796 10.3784C12.2336 9.98093 12.4898 9.58491 12.7474 9.18966C13.0142 8.77988 13.2787 8.36859 13.5421 7.95654C13.7961 7.55906 14.0523 7.16304 14.3099 6.76779C14.3984 6.63193 14.4866 6.49594 14.5748 6.35986C14.5997 6.3213 14.5997 6.3213 14.6252 6.28197C14.7378 6.10785 14.8497 5.93327 14.9613 5.75851C14.9826 5.72508 14.9826 5.72508 15.0044 5.69096C15.0757 5.57934 15.147 5.46768 15.2181 5.35596C15.2569 5.29517 15.2569 5.29517 15.2965 5.23315C15.3314 5.17843 15.3314 5.17843 15.3669 5.1226C15.4219 5.03906 15.4219 5.03906 15.461 5ZM15.461 7.22656C15.4013 7.3133 15.3465 7.39997 15.2925 7.49023C15.2571 7.54831 15.2215 7.60634 15.1859 7.66434C15.167 7.69508 15.1482 7.72583 15.1288 7.75751C15.032 7.91336 14.9315 8.06673 14.8311 8.22021C14.6358 8.51945 14.4424 8.81991 14.2501 9.12109C13.9977 9.51617 13.7431 9.90973 13.4871 10.3025C13.2203 10.7123 12.9558 11.1236 12.6924 11.5356C12.4387 11.9327 12.1827 12.3282 11.9255 12.723C11.7971 12.9202 11.6695 13.1178 11.5418 13.3154C11.4728 13.4221 11.4037 13.5287 11.3346 13.6353C11.2453 13.7727 11.1564 13.9104 11.0676 14.0482C11.0255 14.1134 10.9832 14.1784 10.9408 14.2434C10.6483 14.6916 10.3676 15.136 10.1485 15.625C10.1169 15.6942 10.1169 15.6942 10.0846 15.7648C9.7845 16.4632 9.67058 17.1887 9.66998 17.9443C9.66996 17.9742 9.66993 18.0042 9.6699 18.035C9.67051 18.4673 9.6854 18.8768 9.79694 19.2969C9.80668 19.3362 9.80668 19.3362 9.81662 19.3763C10.1933 20.8864 11.1684 22.1671 12.4854 22.9854C13.8489 23.7998 15.4581 24.0163 16.9927 23.6317C18.493 23.2321 19.7677 22.2375 20.5615 20.9085C21.2939 19.632 21.5709 18.0099 21.1892 16.574C21.1809 16.5444 21.1726 16.5149 21.1641 16.4844C21.1558 16.454 21.1474 16.4237 21.1388 16.3924C21.0141 15.9552 20.8342 15.5548 20.6172 15.1562C20.5932 15.1114 20.5691 15.0666 20.5443 15.0204C20.3666 14.6997 20.1665 14.3966 19.9614 14.0929C19.832 13.901 19.7055 13.7074 19.5797 13.5132C19.5584 13.4805 19.5372 13.4477 19.5153 13.414C19.4529 13.3177 19.3905 13.2214 19.3282 13.125C19.2907 13.0671 19.2532 13.0092 19.2157 12.9514C19.1446 12.8415 19.0735 12.7316 19.0024 12.6216C18.9344 12.5165 18.8664 12.4114 18.7982 12.3064C18.5847 11.977 18.3726 11.6467 18.1612 11.3159C17.9719 11.0197 17.7819 10.7241 17.5899 10.4297C17.3705 10.0932 17.1539 9.75511 16.9376 9.41666C16.7911 9.18749 16.6442 8.95863 16.4962 8.73047C16.3272 8.46992 16.1593 8.20869 15.9918 7.94719C15.9502 7.88227 15.9086 7.81736 15.867 7.75246C15.8414 7.71245 15.8157 7.67244 15.7894 7.63123C15.7551 7.57773 15.7551 7.57773 15.7202 7.52316C15.6763 7.45363 15.6344 7.38284 15.5943 7.31113C15.567 7.26927 15.567 7.26927 15.5391 7.22656C15.5133 7.22656 15.4876 7.22656 15.461 7.22656Z" fill="#929FAD"/>
<path d="M15.5718 13.2335C15.6271 13.2646 15.6271 13.2646 15.6835 13.2963C15.7447 13.33 15.7447 13.33 15.8072 13.3644C15.8679 13.3997 15.8679 13.3997 15.9297 13.4356C15.9654 13.4557 16.001 13.4759 16.0378 13.4966C16.1457 13.5582 16.2526 13.6212 16.3594 13.6847C16.4416 13.733 16.5238 13.7813 16.606 13.8296C16.6486 13.8546 16.6912 13.8796 16.7351 13.9054C16.9605 14.0369 17.1873 14.1659 17.4141 14.295C17.8754 14.5579 18.3348 14.8239 18.7928 15.0925C18.8962 15.153 18.9995 15.2134 19.103 15.2739C19.1642 15.3097 19.2254 15.3456 19.2867 15.3814C19.3144 15.3976 19.3422 15.4138 19.3708 15.4305C19.5581 15.5405 19.5581 15.5405 19.6016 15.5841C19.6061 15.6453 19.6079 15.7067 19.6087 15.7681C19.6092 15.8079 19.6098 15.8477 19.6104 15.8888C19.611 15.9548 19.611 15.9548 19.6116 16.0223C19.6122 16.0684 19.6128 16.1145 19.6134 16.162C19.6183 16.5877 19.621 17.0135 19.623 17.4392C19.6246 17.754 19.6272 18.0687 19.6314 18.3834C19.6343 18.6046 19.6358 18.8259 19.6363 19.0471C19.6366 19.1793 19.6376 19.3114 19.64 19.4435C19.6423 19.5911 19.6425 19.7386 19.6421 19.8862C19.6434 19.9299 19.6446 19.9736 19.6458 20.0185C19.6419 20.3084 19.6419 20.3084 19.5261 20.4272C19.4364 20.488 19.3476 20.5371 19.2501 20.5841C19.1982 20.6135 19.1464 20.6432 19.0949 20.6732C19.0417 20.7022 18.9884 20.7311 18.9351 20.7599C18.6534 20.9142 18.3749 21.0735 18.0977 21.2359C17.6841 21.4781 17.2693 21.7183 16.854 21.9575C16.6958 22.0486 16.5378 22.1399 16.38 22.2316C16.2859 22.2862 16.1919 22.3407 16.0978 22.3952C16.0311 22.4339 15.9645 22.4727 15.8979 22.5115C15.8577 22.5348 15.8175 22.5581 15.7761 22.5821C15.7406 22.6027 15.7051 22.6233 15.6686 22.6445C15.5782 22.6934 15.5782 22.6934 15.461 22.7325C15.3686 22.6929 15.3686 22.6929 15.2593 22.6304C15.219 22.6076 15.1788 22.5849 15.1373 22.5614C15.0943 22.5365 15.0512 22.5116 15.0069 22.4859C14.9403 22.448 14.9403 22.448 14.8725 22.4093C14.5793 22.2418 14.2878 22.0716 13.9974 21.8994C13.7774 21.7692 13.5559 21.6418 13.3345 21.5142C13.2703 21.4772 13.2703 21.4772 13.2048 21.4394C13.0025 21.3228 12.8002 21.2064 12.5977 21.0903C12.5293 21.0511 12.4609 21.0118 12.3925 20.9725C12.3072 20.9235 12.2218 20.8746 12.1364 20.8257C12.0972 20.8032 12.058 20.7806 12.0175 20.7574C11.9837 20.738 11.9499 20.7186 11.915 20.6987C11.8735 20.6737 11.8319 20.6488 11.7891 20.6231C11.7547 20.6063 11.7203 20.5895 11.6848 20.5722C11.3843 20.4112 11.3843 20.4112 11.3188 20.2495C11.3029 20.1267 11.3004 20.01 11.3026 19.8861C11.3017 19.8401 11.3008 19.7941 11.2999 19.7467C11.298 19.621 11.2981 19.4956 11.2991 19.3699C11.2998 19.2648 11.2991 19.1597 11.2983 19.0546C11.2967 18.8064 11.2972 18.5583 11.2991 18.3101C11.3011 18.0547 11.2996 17.7994 11.2965 17.544C11.2938 17.3242 11.2932 17.1043 11.2942 16.8845C11.2947 16.7534 11.2944 16.6224 11.2926 16.4913C11.2836 15.6968 11.2836 15.6968 11.4086 15.5111C11.5421 15.3837 11.6934 15.3302 11.8672 15.2716C11.9469 15.2272 12.0257 15.1813 12.1033 15.1335C12.1833 15.0875 12.2633 15.0415 12.3433 14.9957C12.4098 14.9574 12.4764 14.9192 12.5429 14.881C12.6111 14.8417 12.6794 14.8025 12.7477 14.7633C12.9622 14.64 13.1764 14.5163 13.3907 14.3927C13.4747 14.3442 13.5587 14.2957 13.6428 14.2472C13.7728 14.1722 13.9029 14.0971 14.033 14.022C14.0554 14.0091 14.0778 13.9962 14.1009 13.9828C14.1684 13.9439 14.2358 13.9049 14.3033 13.8659C14.3904 13.8157 14.4776 13.7657 14.565 13.7161C14.7652 13.602 14.9612 13.4875 15.1479 13.3522C15.4129 13.1873 15.4129 13.1873 15.5718 13.2335ZM15.2536 14.7236C15.2096 14.7488 15.1655 14.7741 15.1201 14.8001C15.0718 14.8278 15.0235 14.8556 14.9752 14.8834C14.926 14.9116 14.8768 14.9398 14.8277 14.9679C14.6998 15.0413 14.5719 15.1148 14.4441 15.1883C14.3687 15.2317 14.2932 15.275 14.2178 15.3184C14.078 15.3987 13.9382 15.4792 13.7984 15.5597C13.7552 15.5845 13.7121 15.6093 13.6676 15.6349C13.6278 15.6579 13.5879 15.6809 13.5468 15.7046C13.5118 15.7248 13.4768 15.7449 13.4408 15.7657C13.3707 15.8072 13.3022 15.8514 13.2344 15.8966C13.2835 16.0438 13.3241 16.0531 13.458 16.1256C13.5167 16.1579 13.5167 16.1579 13.5766 16.1908C13.6192 16.2137 13.6618 16.2367 13.7056 16.2603C13.7948 16.3092 13.8839 16.3582 13.973 16.4073C14.0072 16.4261 14.0072 16.4261 14.0422 16.4453C14.3235 16.6002 14.5998 16.7636 14.8762 16.927C14.9476 16.9691 15.0193 17.0105 15.0914 17.0512C15.1876 17.1075 15.1876 17.1075 15.2671 17.1661C15.3489 17.2213 15.402 17.2504 15.5001 17.2638C15.6711 17.2099 15.815 17.1192 15.9664 17.0245C16.0095 16.9989 16.0527 16.9732 16.0972 16.9468C16.1841 16.8951 16.2707 16.8428 16.3569 16.79C16.4877 16.7101 16.6199 16.6329 16.7525 16.5561C16.8826 16.4806 17.0116 16.4035 17.1407 16.3263C17.1686 16.3096 17.1966 16.2929 17.2253 16.2757C17.3926 16.1756 17.5597 16.0753 17.7266 15.9747C17.6701 15.8053 17.5423 15.7679 17.3921 15.6891C17.328 15.6544 17.2638 15.6197 17.1997 15.5848C17.1651 15.566 17.1305 15.5472 17.0948 15.5279C16.8965 15.4183 16.7013 15.3032 16.5059 15.1886C16.4263 15.142 16.3467 15.0954 16.2671 15.0488C16.2296 15.0268 16.192 15.0048 16.1533 14.9822C16.0083 14.8974 15.863 14.8132 15.7173 14.7296C15.6546 14.6935 15.6546 14.6935 15.5905 14.6566C15.4408 14.5754 15.3997 14.6399 15.2536 14.7236ZM12.5704 16.9903C12.5503 17.3278 12.5351 17.6651 12.5258 18.003C12.5214 18.16 12.5153 18.3166 12.5055 18.4734C12.4387 19.1424 12.4387 19.1424 12.6489 19.7501C12.8495 19.9221 13.0772 20.0214 13.3231 20.113C13.4672 20.1689 13.5893 20.2425 13.7207 20.3239C13.8019 20.3708 13.8832 20.4176 13.9644 20.4644C14.0054 20.4881 14.0463 20.5118 14.0885 20.5362C14.1291 20.5596 14.1697 20.583 14.2114 20.6071C14.2463 20.6272 14.2811 20.6473 14.317 20.668C14.5019 20.7722 14.6885 20.8734 14.8751 20.9747C14.8869 20.6338 14.8959 20.293 14.9014 19.9519C14.904 19.7935 14.9076 19.6352 14.9134 19.4769C14.9189 19.3239 14.9219 19.171 14.9232 19.018C14.9242 18.9598 14.926 18.9016 14.9287 18.8434C14.9371 18.6596 14.9351 18.495 14.8751 18.3184C14.7215 18.1723 14.5609 18.0932 14.3672 18.0059C14.3176 17.9778 14.2683 17.9491 14.2197 17.9193C14.1808 17.8972 14.1419 17.8752 14.1017 17.8524C14.0574 17.8272 14.013 17.802 13.9673 17.776C13.9216 17.7501 13.8758 17.7242 13.8301 17.6983C13.7344 17.644 13.6388 17.5895 13.5431 17.5351C13.5083 17.5152 13.5083 17.5152 13.4727 17.495C13.2448 17.365 13.0186 17.2321 12.7934 17.0975C12.6886 17.0231 12.6886 17.0231 12.5704 16.9903ZM18.1812 17.088C18.1446 17.1095 18.108 17.1309 18.0703 17.1531C18.0302 17.1767 17.9901 17.2003 17.9488 17.2247C17.6723 17.387 17.3954 17.5485 17.1167 17.7072C17.0799 17.7281 17.0799 17.7281 17.0424 17.7495C16.9224 17.8178 16.8025 17.8859 16.6824 17.9539C16.6386 17.9788 16.5947 18.0038 16.5496 18.0294C16.5109 18.0513 16.4723 18.0732 16.4325 18.0958C16.3955 18.1177 16.3585 18.1396 16.3204 18.1622C16.2799 18.184 16.2395 18.2057 16.1978 18.2281C16.0755 18.308 16.0755 18.308 16.0578 18.4381C16.0583 18.4849 16.0588 18.5318 16.0594 18.58C16.0594 18.6059 16.0593 18.6319 16.0593 18.6586C16.0594 18.744 16.0613 18.8293 16.0631 18.9148C16.0635 18.9741 16.0639 19.0334 16.0641 19.0927C16.065 19.2487 16.0673 19.4046 16.0699 19.5605C16.0723 19.7197 16.0734 19.8789 16.0745 20.0381C16.0771 20.3503 16.0811 20.6625 16.086 20.9747C16.4376 20.7894 16.7858 20.6002 17.1285 20.3985C17.1818 20.3674 17.1818 20.3674 17.2361 20.3357C17.3138 20.2901 17.3906 20.2431 17.4667 20.1949C17.5778 20.128 17.6899 20.0847 17.8118 20.0409C18.0422 19.9479 18.2432 19.853 18.3907 19.6466C18.5133 19.2428 18.4679 18.7991 18.4443 18.383C18.4363 18.226 18.4328 18.0688 18.4288 17.9116C18.4205 17.6043 18.4072 17.2974 18.3907 16.9903C18.3145 16.9903 18.2446 17.0506 18.1812 17.088Z" fill="#929FAD"/>
</g>
<defs>
<linearGradient id="paint0_linear_223_4579" x1="0.5" y1="0" x2="33.5291" y2="1.03141" gradientUnits="userSpaceOnUse">
<stop stop-color="#494949"/>
<stop offset="1" stop-color="#0A1C3B"/>
</linearGradient>
<clipPath id="clip0_223_4579">
<rect width="20" height="20" fill="white" transform="translate(5.5 5)"/>
</clipPath>
</defs>
</svg>
