<svg width="31" height="30" viewBox="0 0 31 30" fill="none" xmlns="http://www.w3.org/2000/svg">
<rect x="0.5" width="30" height="30" rx="10" fill="url(#paint0_linear_223_4632)"/>
<path opacity="0.98" fill-rule="evenodd" clip-rule="evenodd" d="M14.8242 5.99601C15.1857 5.95209 15.4396 6.09532 15.5859 6.4257C15.5889 6.81918 15.6149 7.20981 15.6641 7.59757C15.8391 7.65409 16.0149 7.71268 16.1914 7.77335C16.5104 8.07849 16.5429 8.41052 16.2891 8.76945C16.1248 8.90237 15.936 8.97398 15.7227 8.98429C15.6682 9.03003 15.6357 9.08863 15.625 9.16007C15.5989 13.0403 15.5989 16.9205 15.625 20.8007C15.6357 20.8721 15.6682 20.9307 15.7227 20.9765C16.2887 21.0353 16.5166 21.3413 16.4063 21.8944C16.3648 22.0141 16.2932 22.1117 16.1914 22.1874C16.0149 22.2481 15.8391 22.3067 15.6641 22.3632C15.6149 22.751 15.5889 23.1416 15.5859 23.5351C15.3723 23.9418 15.0533 24.0525 14.6289 23.8671C14.5143 23.7787 14.4297 23.668 14.375 23.5351C14.3687 23.1946 14.3427 22.856 14.2969 22.5194C14.2319 22.425 14.1473 22.3534 14.043 22.3046C12.5716 22.2916 11.1003 22.2785 9.62891 22.2655C8.56666 22.0366 7.92213 21.3921 7.69531 20.3319C7.66927 16.7643 7.66927 13.1965 7.69531 9.62882C7.89443 8.64846 8.47385 8.01695 9.43359 7.73429C10.9969 7.6957 12.5594 7.65664 14.1211 7.6171C14.1927 7.57153 14.2513 7.51294 14.2969 7.44132C14.3335 7.06273 14.3725 6.68513 14.4141 6.30851C14.5256 6.16356 14.6623 6.05939 14.8242 5.99601ZM9.74609 8.96476C11.1915 8.95824 12.6368 8.96476 14.082 8.98429C14.1797 9.02988 14.2513 9.10148 14.2969 9.19914C14.3616 12.9995 14.3746 16.8016 14.3359 20.6054C14.3237 20.7798 14.2391 20.9035 14.082 20.9765C12.6497 21.0025 11.2175 21.0025 9.78516 20.9765C9.42434 20.8892 9.17043 20.6743 9.02344 20.3319C8.95871 16.805 8.9457 13.2764 8.98438 9.74601C9.11527 9.36125 9.36918 9.10082 9.74609 8.96476Z" fill="#929FAD"/>
<path opacity="0.966" fill-rule="evenodd" clip-rule="evenodd" d="M18.9648 7.67627C19.4207 7.66976 19.8765 7.67627 20.332 7.6958C21.3932 7.92366 22.0378 8.56819 22.2656 9.62939C22.2917 10.0851 22.2917 10.5408 22.2656 10.9966C22.0955 11.3909 21.8025 11.5276 21.3867 11.4067C21.1944 11.3158 21.0707 11.1661 21.0156 10.9575C21.256 9.37502 20.5855 8.70444 19.0039 8.9458C18.5094 8.73842 18.3857 8.39337 18.6328 7.91064C18.7235 7.79754 18.8342 7.71942 18.9648 7.67627Z" fill="#929FAD"/>
<path opacity="0.96" fill-rule="evenodd" clip-rule="evenodd" d="M21.5039 13.495C21.8754 13.4688 22.1293 13.6251 22.2656 13.9638C22.2917 14.6408 22.2917 15.3179 22.2656 15.995C22.1666 16.2924 21.9583 16.4486 21.6406 16.4638C21.3172 16.4327 21.1089 16.2634 21.0156 15.9559C20.9896 15.3049 20.9896 14.6539 21.0156 14.0028C21.0813 13.7354 21.2441 13.5661 21.5039 13.495Z" fill="#929FAD"/>
<path opacity="0.966" fill-rule="evenodd" clip-rule="evenodd" d="M21.5037 18.495C21.8752 18.4688 22.1291 18.6251 22.2654 18.9638C22.2915 19.4195 22.2915 19.8752 22.2654 20.3309C22.0365 21.3932 21.392 22.0377 20.3318 22.2645C19.8761 22.2906 19.4204 22.2906 18.9647 22.2645C18.5704 22.0944 18.4336 21.8014 18.5545 21.3856C18.6329 21.1771 18.7827 21.0534 19.0037 21.0145C20.5857 21.2554 21.2563 20.5848 21.0154 19.0028C21.0811 18.7354 21.2439 18.5661 21.5037 18.495Z" fill="#929FAD"/>
<defs>
<linearGradient id="paint0_linear_223_4632" x1="0.5" y1="0" x2="33.5291" y2="1.03141" gradientUnits="userSpaceOnUse">
<stop stop-color="#494949"/>
<stop offset="1" stop-color="#0A1C3B"/>
</linearGradient>
</defs>
</svg>
