<svg width="31" height="30" viewBox="0 0 31 30" fill="none" xmlns="http://www.w3.org/2000/svg">
<rect x="0.5" width="30" height="30" rx="10" fill="url(#paint0_linear_223_4653)"/>
<g clip-path="url(#clip0_223_4653)">
<mask id="path-2-outside-1_223_4653" maskUnits="userSpaceOnUse" x="4.98926" y="5.55469" width="20" height="19" fill="black">
<rect fill="white" x="4.98926" y="5.55469" width="20" height="19"/>
<path d="M12.2579 6.70324C12.2816 6.71004 12.3053 6.71684 12.3297 6.72384C13.0692 6.94134 13.691 7.35403 14.0746 8.0389C14.1155 8.12032 14.1547 8.20188 14.1915 8.28527C14.2129 8.27331 14.2342 8.26134 14.2563 8.24902C15.8868 7.34742 17.6379 6.99754 19.4649 7.51184C19.9084 7.64337 20.3261 7.81487 20.7305 8.03918C20.7529 8.0516 20.7754 8.06401 20.7985 8.07681C21.2966 8.35641 21.7243 8.70075 22.1368 9.09387C22.166 9.12079 22.1951 9.14771 22.2252 9.17544C23.2359 10.1372 23.9623 11.6662 24.0063 13.0671C24.0072 13.1167 24.0079 13.1663 24.0084 13.2159C24.0088 13.2429 24.0091 13.2699 24.0095 13.2977C24.0249 14.8224 23.686 16.2917 22.6993 17.4962C22.6829 17.5163 22.6665 17.5364 22.6496 17.5571C22.5976 17.6206 22.5453 17.6837 22.4927 17.7467C22.4764 17.7663 22.4601 17.7859 22.4432 17.8061C22.3323 17.9365 22.2622 18.0175 22.0862 18.0367C21.961 18.0236 21.961 18.0236 21.8753 17.9686C21.7998 17.8508 21.8077 17.775 21.8204 17.6368C21.876 17.5467 21.876 17.5467 21.9544 17.4611C21.9833 17.4277 22.0122 17.3944 22.042 17.3601C22.0575 17.3424 22.073 17.3246 22.0889 17.3063C22.9658 16.2762 23.4201 14.9683 23.4134 13.6224C23.4133 13.5952 23.4132 13.568 23.4132 13.54C23.4114 13.139 23.3969 12.7532 23.2969 12.3634C23.2899 12.3347 23.283 12.3061 23.2758 12.2766C23.0795 11.4843 22.7439 10.7596 22.2422 10.1134C22.2066 10.067 22.2066 10.067 22.1703 10.0196C21.1907 8.78077 19.8055 8.10819 18.2635 7.88221C16.8415 7.72493 15.3618 8.16491 14.2266 9.02355C14.1948 9.04757 14.1629 9.07159 14.1301 9.09634C12.9237 10.0453 12.1647 11.4414 11.9766 12.9611C11.8676 13.9571 12.0073 15.0032 12.4336 15.9142C12.4444 15.9373 12.4552 15.9604 12.4664 15.9843C13.1318 17.3971 14.2648 18.4487 15.7254 19.0082C16.0845 19.1369 16.4517 19.229 16.8282 19.2892C16.8681 19.2957 16.9079 19.3021 16.949 19.3088C17.1864 19.3371 17.4266 19.3329 17.6653 19.3331C17.7042 19.3332 17.7042 19.3332 17.7438 19.3332C18.1502 19.3326 18.5409 19.312 18.9376 19.2189C18.9629 19.2132 18.9882 19.2075 19.0143 19.2017C19.7366 19.0363 20.4126 18.7148 21.0217 18.2957C21.1375 18.2215 21.1932 18.2086 21.3282 18.2345C21.445 18.3208 21.4961 18.3725 21.5259 18.5157C21.497 18.6546 21.4358 18.7129 21.3282 18.797C21.3071 18.8142 21.2859 18.8313 21.2642 18.849C20.2543 19.611 18.9473 19.9389 17.7005 19.933C17.6737 19.9329 17.6469 19.9329 17.6193 19.9329C17.0715 19.9312 16.5412 19.8936 16.0196 19.7111C16.008 19.7517 15.9964 19.7923 15.9844 19.8341C15.7686 20.4754 15.3685 20.9994 14.9297 21.504C14.8924 21.5494 14.855 21.5948 14.8177 21.6403C14.7251 21.7479 14.6219 21.8392 14.5136 21.9308C14.4626 21.9747 14.4126 22.0198 14.3637 22.066C13.7239 22.6684 12.9386 23.1535 12.0821 23.3673C12.0607 23.3735 12.0393 23.3797 12.0172 23.386C11.5399 23.4895 10.9527 23.436 10.5001 23.2618C10.4781 23.2535 10.4561 23.2452 10.4335 23.2367C9.86464 23.0176 9.35236 22.6987 8.88287 22.3126C8.86441 22.2977 8.84594 22.2828 8.82692 22.2675C7.81632 21.4515 7.11117 20.4587 6.72515 19.2123C6.71719 19.1869 6.70922 19.1615 6.70101 19.1354C6.55818 18.6445 6.51626 18.1474 6.50349 17.639C6.49059 17.178 6.46826 16.771 6.27485 16.3462C6.19291 16.1658 6.15214 15.9775 6.10992 15.7845C6.10279 15.7525 6.09566 15.7205 6.08831 15.6876C6.02889 15.4112 5.99472 15.1415 5.99291 14.8587C5.99267 14.8327 5.99242 14.8067 5.99216 14.7799C5.98422 13.7053 5.98422 13.7053 6.10552 13.2423C6.11712 13.1969 6.11712 13.1969 6.12896 13.1505C6.27979 12.5697 6.27979 12.5697 6.39337 12.3631C6.49641 12.139 6.4685 11.889 6.46162 11.648C6.45768 11.5019 6.45654 11.3557 6.45571 11.2096C6.45555 11.1811 6.45539 11.1527 6.45522 11.1234C6.45486 10.8028 6.48986 10.4959 6.56256 10.1837C6.56859 10.1571 6.57462 10.1305 6.58084 10.1031C6.76106 9.33275 7.10338 8.64766 7.6524 8.07434C7.67995 8.03881 7.70751 8.00328 7.7359 7.96667C7.87904 7.80648 8.04542 7.67832 8.2149 7.54699C8.25439 7.51599 8.25439 7.51599 8.29469 7.48437C8.79709 7.11131 9.37289 6.86884 9.97271 6.70324C10.0086 6.69311 10.0086 6.69311 10.0453 6.68278C10.7066 6.50619 11.6054 6.51141 12.2579 6.70324ZM7.98489 8.54331C7.3517 9.26453 7.05792 10.2242 7.01959 11.1681C7.1308 11.0598 7.23224 10.9503 7.3272 10.8275C7.55383 10.5412 7.78989 10.273 8.07427 10.0431C8.10708 10.0164 8.1399 9.9897 8.1737 9.9622C9.19954 9.14288 10.4576 8.62685 11.7657 8.49621C11.7995 8.49236 11.8334 8.48851 11.8683 8.48454C12.4736 8.4258 13.069 8.44171 13.6641 8.56652C13.5154 8.07763 13.1548 7.72645 12.7134 7.48959C11.0951 6.70506 9.16134 7.26248 7.98489 8.54331ZM8.39068 10.5001C8.36023 10.5255 8.32977 10.551 8.2984 10.5772C8.12512 10.7267 7.97322 10.8858 7.82818 11.0626C7.79967 11.096 7.77117 11.1294 7.7418 11.1638C6.87238 12.2045 6.43689 13.5647 6.54086 14.9172C6.5999 15.5421 6.5999 15.5421 6.80865 16.1251C6.90124 16.0129 6.98193 15.9003 7.05694 15.7758C7.40083 15.231 7.86031 14.6564 8.42584 14.3321C8.58278 14.3154 8.6451 14.3143 8.7774 14.4025C8.82626 14.6054 8.82626 14.6054 8.79086 14.7168C8.72288 14.818 8.63125 14.8796 8.5335 14.9496C7.95742 15.3799 7.55769 15.9262 7.22685 16.5585C7.20115 16.6065 7.17316 16.6533 7.14456 16.6996C6.99231 16.9684 7.04323 17.304 7.05474 17.6017C7.05592 17.6522 7.05706 17.7027 7.05818 17.7532C7.10472 19.2494 7.81916 20.5783 8.89356 21.5904C9.37878 22.032 9.93617 22.3981 10.5352 22.6642C10.5762 22.6828 10.6172 22.7014 10.6595 22.7206C11.1914 22.9309 11.835 22.9207 12.362 22.6965C12.9984 22.4091 13.5263 22.0296 14.0508 21.5743C14.0962 21.537 14.1416 21.4996 14.1871 21.4623C14.2923 21.3714 14.3828 21.2717 14.4724 21.1656C14.5251 21.1033 14.579 21.0419 14.6334 20.9811C15.0097 20.5566 15.2642 20.0873 15.4922 19.5704C15.3914 19.4696 15.2657 19.4297 15.1363 19.3749C14.6538 19.1648 14.2148 18.9184 13.8047 18.5861C13.7862 18.5711 13.7677 18.5561 13.7486 18.5407C12.4089 17.4531 11.5891 15.9292 11.4031 14.2113C11.3943 14.1227 11.3864 14.0341 11.379 13.9454C10.8785 13.9157 10.3917 14.0218 9.92465 14.1952C9.72592 14.2652 9.58298 14.2621 9.37506 14.2267C9.33254 13.9716 9.33254 13.9716 9.36077 13.8713C9.47484 13.7179 9.72394 13.6832 9.9024 13.629C9.94382 13.6162 9.98524 13.6035 10.0279 13.5903C10.4697 13.4674 10.9238 13.4282 11.379 13.3829C11.3835 13.3171 11.3835 13.3171 11.3882 13.2499C11.4408 12.5702 11.5809 11.9184 11.8008 11.2736C11.0241 11.2569 10.3484 11.281 9.64834 11.6497C9.5278 11.7062 9.46605 11.6975 9.3399 11.6603C9.24987 11.5702 9.25853 11.5046 9.25338 11.3815C9.27735 11.2739 9.32475 11.2371 9.41021 11.1681C9.49515 11.1226 9.57687 11.0827 9.66509 11.045C9.68963 11.0345 9.71417 11.0239 9.73946 11.013C10.1717 10.8331 10.6319 10.7237 11.1007 10.7638C11.6343 10.8232 11.6343 10.8232 12.1339 10.6939C12.2592 10.5585 12.3171 10.3976 12.3719 10.2238C12.4102 10.1154 12.4714 10.0326 12.5413 9.94201C12.5638 9.91215 12.5864 9.88228 12.6096 9.85151C12.6327 9.82192 12.6559 9.79233 12.6797 9.76184C12.7183 9.71255 12.7183 9.71255 12.7576 9.66227C12.9194 9.46004 13.0897 9.27235 13.2774 9.09387C13.2658 9.07066 13.2542 9.04746 13.2422 9.02355C11.5785 8.67804 9.6474 9.45082 8.39068 10.5001Z"/>
</mask>
<path d="M12.2579 6.70324C12.2816 6.71004 12.3053 6.71684 12.3297 6.72384C13.0692 6.94134 13.691 7.35403 14.0746 8.0389C14.1155 8.12032 14.1547 8.20188 14.1915 8.28527C14.2129 8.27331 14.2342 8.26134 14.2563 8.24902C15.8868 7.34742 17.6379 6.99754 19.4649 7.51184C19.9084 7.64337 20.3261 7.81487 20.7305 8.03918C20.7529 8.0516 20.7754 8.06401 20.7985 8.07681C21.2966 8.35641 21.7243 8.70075 22.1368 9.09387C22.166 9.12079 22.1951 9.14771 22.2252 9.17544C23.2359 10.1372 23.9623 11.6662 24.0063 13.0671C24.0072 13.1167 24.0079 13.1663 24.0084 13.2159C24.0088 13.2429 24.0091 13.2699 24.0095 13.2977C24.0249 14.8224 23.686 16.2917 22.6993 17.4962C22.6829 17.5163 22.6665 17.5364 22.6496 17.5571C22.5976 17.6206 22.5453 17.6837 22.4927 17.7467C22.4764 17.7663 22.4601 17.7859 22.4432 17.8061C22.3323 17.9365 22.2622 18.0175 22.0862 18.0367C21.961 18.0236 21.961 18.0236 21.8753 17.9686C21.7998 17.8508 21.8077 17.775 21.8204 17.6368C21.876 17.5467 21.876 17.5467 21.9544 17.4611C21.9833 17.4277 22.0122 17.3944 22.042 17.3601C22.0575 17.3424 22.073 17.3246 22.0889 17.3063C22.9658 16.2762 23.4201 14.9683 23.4134 13.6224C23.4133 13.5952 23.4132 13.568 23.4132 13.54C23.4114 13.139 23.3969 12.7532 23.2969 12.3634C23.2899 12.3347 23.283 12.3061 23.2758 12.2766C23.0795 11.4843 22.7439 10.7596 22.2422 10.1134C22.2066 10.067 22.2066 10.067 22.1703 10.0196C21.1907 8.78077 19.8055 8.10819 18.2635 7.88221C16.8415 7.72493 15.3618 8.16491 14.2266 9.02355C14.1948 9.04757 14.1629 9.07159 14.1301 9.09634C12.9237 10.0453 12.1647 11.4414 11.9766 12.9611C11.8676 13.9571 12.0073 15.0032 12.4336 15.9142C12.4444 15.9373 12.4552 15.9604 12.4664 15.9843C13.1318 17.3971 14.2648 18.4487 15.7254 19.0082C16.0845 19.1369 16.4517 19.229 16.8282 19.2892C16.8681 19.2957 16.9079 19.3021 16.949 19.3088C17.1864 19.3371 17.4266 19.3329 17.6653 19.3331C17.7042 19.3332 17.7042 19.3332 17.7438 19.3332C18.1502 19.3326 18.5409 19.312 18.9376 19.2189C18.9629 19.2132 18.9882 19.2075 19.0143 19.2017C19.7366 19.0363 20.4126 18.7148 21.0217 18.2957C21.1375 18.2215 21.1932 18.2086 21.3282 18.2345C21.445 18.3208 21.4961 18.3725 21.5259 18.5157C21.497 18.6546 21.4358 18.7129 21.3282 18.797C21.3071 18.8142 21.2859 18.8313 21.2642 18.849C20.2543 19.611 18.9473 19.9389 17.7005 19.933C17.6737 19.9329 17.6469 19.9329 17.6193 19.9329C17.0715 19.9312 16.5412 19.8936 16.0196 19.7111C16.008 19.7517 15.9964 19.7923 15.9844 19.8341C15.7686 20.4754 15.3685 20.9994 14.9297 21.504C14.8924 21.5494 14.855 21.5948 14.8177 21.6403C14.7251 21.7479 14.6219 21.8392 14.5136 21.9308C14.4626 21.9747 14.4126 22.0198 14.3637 22.066C13.7239 22.6684 12.9386 23.1535 12.0821 23.3673C12.0607 23.3735 12.0393 23.3797 12.0172 23.386C11.5399 23.4895 10.9527 23.436 10.5001 23.2618C10.4781 23.2535 10.4561 23.2452 10.4335 23.2367C9.86464 23.0176 9.35236 22.6987 8.88287 22.3126C8.86441 22.2977 8.84594 22.2828 8.82692 22.2675C7.81632 21.4515 7.11117 20.4587 6.72515 19.2123C6.71719 19.1869 6.70922 19.1615 6.70101 19.1354C6.55818 18.6445 6.51626 18.1474 6.50349 17.639C6.49059 17.178 6.46826 16.771 6.27485 16.3462C6.19291 16.1658 6.15214 15.9775 6.10992 15.7845C6.10279 15.7525 6.09566 15.7205 6.08831 15.6876C6.02889 15.4112 5.99472 15.1415 5.99291 14.8587C5.99267 14.8327 5.99242 14.8067 5.99216 14.7799C5.98422 13.7053 5.98422 13.7053 6.10552 13.2423C6.11712 13.1969 6.11712 13.1969 6.12896 13.1505C6.27979 12.5697 6.27979 12.5697 6.39337 12.3631C6.49641 12.139 6.4685 11.889 6.46162 11.648C6.45768 11.5019 6.45654 11.3557 6.45571 11.2096C6.45555 11.1811 6.45539 11.1527 6.45522 11.1234C6.45486 10.8028 6.48986 10.4959 6.56256 10.1837C6.56859 10.1571 6.57462 10.1305 6.58084 10.1031C6.76106 9.33275 7.10338 8.64766 7.6524 8.07434C7.67995 8.03881 7.70751 8.00328 7.7359 7.96667C7.87904 7.80648 8.04542 7.67832 8.2149 7.54699C8.25439 7.51599 8.25439 7.51599 8.29469 7.48437C8.79709 7.11131 9.37289 6.86884 9.97271 6.70324C10.0086 6.69311 10.0086 6.69311 10.0453 6.68278C10.7066 6.50619 11.6054 6.51141 12.2579 6.70324ZM7.98489 8.54331C7.3517 9.26453 7.05792 10.2242 7.01959 11.1681C7.1308 11.0598 7.23224 10.9503 7.3272 10.8275C7.55383 10.5412 7.78989 10.273 8.07427 10.0431C8.10708 10.0164 8.1399 9.9897 8.1737 9.9622C9.19954 9.14288 10.4576 8.62685 11.7657 8.49621C11.7995 8.49236 11.8334 8.48851 11.8683 8.48454C12.4736 8.4258 13.069 8.44171 13.6641 8.56652C13.5154 8.07763 13.1548 7.72645 12.7134 7.48959C11.0951 6.70506 9.16134 7.26248 7.98489 8.54331ZM8.39068 10.5001C8.36023 10.5255 8.32977 10.551 8.2984 10.5772C8.12512 10.7267 7.97322 10.8858 7.82818 11.0626C7.79967 11.096 7.77117 11.1294 7.7418 11.1638C6.87238 12.2045 6.43689 13.5647 6.54086 14.9172C6.5999 15.5421 6.5999 15.5421 6.80865 16.1251C6.90124 16.0129 6.98193 15.9003 7.05694 15.7758C7.40083 15.231 7.86031 14.6564 8.42584 14.3321C8.58278 14.3154 8.6451 14.3143 8.7774 14.4025C8.82626 14.6054 8.82626 14.6054 8.79086 14.7168C8.72288 14.818 8.63125 14.8796 8.5335 14.9496C7.95742 15.3799 7.55769 15.9262 7.22685 16.5585C7.20115 16.6065 7.17316 16.6533 7.14456 16.6996C6.99231 16.9684 7.04323 17.304 7.05474 17.6017C7.05592 17.6522 7.05706 17.7027 7.05818 17.7532C7.10472 19.2494 7.81916 20.5783 8.89356 21.5904C9.37878 22.032 9.93617 22.3981 10.5352 22.6642C10.5762 22.6828 10.6172 22.7014 10.6595 22.7206C11.1914 22.9309 11.835 22.9207 12.362 22.6965C12.9984 22.4091 13.5263 22.0296 14.0508 21.5743C14.0962 21.537 14.1416 21.4996 14.1871 21.4623C14.2923 21.3714 14.3828 21.2717 14.4724 21.1656C14.5251 21.1033 14.579 21.0419 14.6334 20.9811C15.0097 20.5566 15.2642 20.0873 15.4922 19.5704C15.3914 19.4696 15.2657 19.4297 15.1363 19.3749C14.6538 19.1648 14.2148 18.9184 13.8047 18.5861C13.7862 18.5711 13.7677 18.5561 13.7486 18.5407C12.4089 17.4531 11.5891 15.9292 11.4031 14.2113C11.3943 14.1227 11.3864 14.0341 11.379 13.9454C10.8785 13.9157 10.3917 14.0218 9.92465 14.1952C9.72592 14.2652 9.58298 14.2621 9.37506 14.2267C9.33254 13.9716 9.33254 13.9716 9.36077 13.8713C9.47484 13.7179 9.72394 13.6832 9.9024 13.629C9.94382 13.6162 9.98524 13.6035 10.0279 13.5903C10.4697 13.4674 10.9238 13.4282 11.379 13.3829C11.3835 13.3171 11.3835 13.3171 11.3882 13.2499C11.4408 12.5702 11.5809 11.9184 11.8008 11.2736C11.0241 11.2569 10.3484 11.281 9.64834 11.6497C9.5278 11.7062 9.46605 11.6975 9.3399 11.6603C9.24987 11.5702 9.25853 11.5046 9.25338 11.3815C9.27735 11.2739 9.32475 11.2371 9.41021 11.1681C9.49515 11.1226 9.57687 11.0827 9.66509 11.045C9.68963 11.0345 9.71417 11.0239 9.73946 11.013C10.1717 10.8331 10.6319 10.7237 11.1007 10.7638C11.6343 10.8232 11.6343 10.8232 12.1339 10.6939C12.2592 10.5585 12.3171 10.3976 12.3719 10.2238C12.4102 10.1154 12.4714 10.0326 12.5413 9.94201C12.5638 9.91215 12.5864 9.88228 12.6096 9.85151C12.6327 9.82192 12.6559 9.79233 12.6797 9.76184C12.7183 9.71255 12.7183 9.71255 12.7576 9.66227C12.9194 9.46004 13.0897 9.27235 13.2774 9.09387C13.2658 9.07066 13.2542 9.04746 13.2422 9.02355C11.5785 8.67804 9.6474 9.45082 8.39068 10.5001Z" fill="#929FAD"/>
<path d="M12.2579 6.70324C12.2816 6.71004 12.3053 6.71684 12.3297 6.72384C13.0692 6.94134 13.691 7.35403 14.0746 8.0389C14.1155 8.12032 14.1547 8.20188 14.1915 8.28527C14.2129 8.27331 14.2342 8.26134 14.2563 8.24902C15.8868 7.34742 17.6379 6.99754 19.4649 7.51184C19.9084 7.64337 20.3261 7.81487 20.7305 8.03918C20.7529 8.0516 20.7754 8.06401 20.7985 8.07681C21.2966 8.35641 21.7243 8.70075 22.1368 9.09387C22.166 9.12079 22.1951 9.14771 22.2252 9.17544C23.2359 10.1372 23.9623 11.6662 24.0063 13.0671C24.0072 13.1167 24.0079 13.1663 24.0084 13.2159C24.0088 13.2429 24.0091 13.2699 24.0095 13.2977C24.0249 14.8224 23.686 16.2917 22.6993 17.4962C22.6829 17.5163 22.6665 17.5364 22.6496 17.5571C22.5976 17.6206 22.5453 17.6837 22.4927 17.7467C22.4764 17.7663 22.4601 17.7859 22.4432 17.8061C22.3323 17.9365 22.2622 18.0175 22.0862 18.0367C21.961 18.0236 21.961 18.0236 21.8753 17.9686C21.7998 17.8508 21.8077 17.775 21.8204 17.6368C21.876 17.5467 21.876 17.5467 21.9544 17.4611C21.9833 17.4277 22.0122 17.3944 22.042 17.3601C22.0575 17.3424 22.073 17.3246 22.0889 17.3063C22.9658 16.2762 23.4201 14.9683 23.4134 13.6224C23.4133 13.5952 23.4132 13.568 23.4132 13.54C23.4114 13.139 23.3969 12.7532 23.2969 12.3634C23.2899 12.3347 23.283 12.3061 23.2758 12.2766C23.0795 11.4843 22.7439 10.7596 22.2422 10.1134C22.2066 10.067 22.2066 10.067 22.1703 10.0196C21.1907 8.78077 19.8055 8.10819 18.2635 7.88221C16.8415 7.72493 15.3618 8.16491 14.2266 9.02355C14.1948 9.04757 14.1629 9.07159 14.1301 9.09634C12.9237 10.0453 12.1647 11.4414 11.9766 12.9611C11.8676 13.9571 12.0073 15.0032 12.4336 15.9142C12.4444 15.9373 12.4552 15.9604 12.4664 15.9843C13.1318 17.3971 14.2648 18.4487 15.7254 19.0082C16.0845 19.1369 16.4517 19.229 16.8282 19.2892C16.8681 19.2957 16.9079 19.3021 16.949 19.3088C17.1864 19.3371 17.4266 19.3329 17.6653 19.3331C17.7042 19.3332 17.7042 19.3332 17.7438 19.3332C18.1502 19.3326 18.5409 19.312 18.9376 19.2189C18.9629 19.2132 18.9882 19.2075 19.0143 19.2017C19.7366 19.0363 20.4126 18.7148 21.0217 18.2957C21.1375 18.2215 21.1932 18.2086 21.3282 18.2345C21.445 18.3208 21.4961 18.3725 21.5259 18.5157C21.497 18.6546 21.4358 18.7129 21.3282 18.797C21.3071 18.8142 21.2859 18.8313 21.2642 18.849C20.2543 19.611 18.9473 19.9389 17.7005 19.933C17.6737 19.9329 17.6469 19.9329 17.6193 19.9329C17.0715 19.9312 16.5412 19.8936 16.0196 19.7111C16.008 19.7517 15.9964 19.7923 15.9844 19.8341C15.7686 20.4754 15.3685 20.9994 14.9297 21.504C14.8924 21.5494 14.855 21.5948 14.8177 21.6403C14.7251 21.7479 14.6219 21.8392 14.5136 21.9308C14.4626 21.9747 14.4126 22.0198 14.3637 22.066C13.7239 22.6684 12.9386 23.1535 12.0821 23.3673C12.0607 23.3735 12.0393 23.3797 12.0172 23.386C11.5399 23.4895 10.9527 23.436 10.5001 23.2618C10.4781 23.2535 10.4561 23.2452 10.4335 23.2367C9.86464 23.0176 9.35236 22.6987 8.88287 22.3126C8.86441 22.2977 8.84594 22.2828 8.82692 22.2675C7.81632 21.4515 7.11117 20.4587 6.72515 19.2123C6.71719 19.1869 6.70922 19.1615 6.70101 19.1354C6.55818 18.6445 6.51626 18.1474 6.50349 17.639C6.49059 17.178 6.46826 16.771 6.27485 16.3462C6.19291 16.1658 6.15214 15.9775 6.10992 15.7845C6.10279 15.7525 6.09566 15.7205 6.08831 15.6876C6.02889 15.4112 5.99472 15.1415 5.99291 14.8587C5.99267 14.8327 5.99242 14.8067 5.99216 14.7799C5.98422 13.7053 5.98422 13.7053 6.10552 13.2423C6.11712 13.1969 6.11712 13.1969 6.12896 13.1505C6.27979 12.5697 6.27979 12.5697 6.39337 12.3631C6.49641 12.139 6.4685 11.889 6.46162 11.648C6.45768 11.5019 6.45654 11.3557 6.45571 11.2096C6.45555 11.1811 6.45539 11.1527 6.45522 11.1234C6.45486 10.8028 6.48986 10.4959 6.56256 10.1837C6.56859 10.1571 6.57462 10.1305 6.58084 10.1031C6.76106 9.33275 7.10338 8.64766 7.6524 8.07434C7.67995 8.03881 7.70751 8.00328 7.7359 7.96667C7.87904 7.80648 8.04542 7.67832 8.2149 7.54699C8.25439 7.51599 8.25439 7.51599 8.29469 7.48437C8.79709 7.11131 9.37289 6.86884 9.97271 6.70324C10.0086 6.69311 10.0086 6.69311 10.0453 6.68278C10.7066 6.50619 11.6054 6.51141 12.2579 6.70324ZM7.98489 8.54331C7.3517 9.26453 7.05792 10.2242 7.01959 11.1681C7.1308 11.0598 7.23224 10.9503 7.3272 10.8275C7.55383 10.5412 7.78989 10.273 8.07427 10.0431C8.10708 10.0164 8.1399 9.9897 8.1737 9.9622C9.19954 9.14288 10.4576 8.62685 11.7657 8.49621C11.7995 8.49236 11.8334 8.48851 11.8683 8.48454C12.4736 8.4258 13.069 8.44171 13.6641 8.56652C13.5154 8.07763 13.1548 7.72645 12.7134 7.48959C11.0951 6.70506 9.16134 7.26248 7.98489 8.54331ZM8.39068 10.5001C8.36023 10.5255 8.32977 10.551 8.2984 10.5772C8.12512 10.7267 7.97322 10.8858 7.82818 11.0626C7.79967 11.096 7.77117 11.1294 7.7418 11.1638C6.87238 12.2045 6.43689 13.5647 6.54086 14.9172C6.5999 15.5421 6.5999 15.5421 6.80865 16.1251C6.90124 16.0129 6.98193 15.9003 7.05694 15.7758C7.40083 15.231 7.86031 14.6564 8.42584 14.3321C8.58278 14.3154 8.6451 14.3143 8.7774 14.4025C8.82626 14.6054 8.82626 14.6054 8.79086 14.7168C8.72288 14.818 8.63125 14.8796 8.5335 14.9496C7.95742 15.3799 7.55769 15.9262 7.22685 16.5585C7.20115 16.6065 7.17316 16.6533 7.14456 16.6996C6.99231 16.9684 7.04323 17.304 7.05474 17.6017C7.05592 17.6522 7.05706 17.7027 7.05818 17.7532C7.10472 19.2494 7.81916 20.5783 8.89356 21.5904C9.37878 22.032 9.93617 22.3981 10.5352 22.6642C10.5762 22.6828 10.6172 22.7014 10.6595 22.7206C11.1914 22.9309 11.835 22.9207 12.362 22.6965C12.9984 22.4091 13.5263 22.0296 14.0508 21.5743C14.0962 21.537 14.1416 21.4996 14.1871 21.4623C14.2923 21.3714 14.3828 21.2717 14.4724 21.1656C14.5251 21.1033 14.579 21.0419 14.6334 20.9811C15.0097 20.5566 15.2642 20.0873 15.4922 19.5704C15.3914 19.4696 15.2657 19.4297 15.1363 19.3749C14.6538 19.1648 14.2148 18.9184 13.8047 18.5861C13.7862 18.5711 13.7677 18.5561 13.7486 18.5407C12.4089 17.4531 11.5891 15.9292 11.4031 14.2113C11.3943 14.1227 11.3864 14.0341 11.379 13.9454C10.8785 13.9157 10.3917 14.0218 9.92465 14.1952C9.72592 14.2652 9.58298 14.2621 9.37506 14.2267C9.33254 13.9716 9.33254 13.9716 9.36077 13.8713C9.47484 13.7179 9.72394 13.6832 9.9024 13.629C9.94382 13.6162 9.98524 13.6035 10.0279 13.5903C10.4697 13.4674 10.9238 13.4282 11.379 13.3829C11.3835 13.3171 11.3835 13.3171 11.3882 13.2499C11.4408 12.5702 11.5809 11.9184 11.8008 11.2736C11.0241 11.2569 10.3484 11.281 9.64834 11.6497C9.5278 11.7062 9.46605 11.6975 9.3399 11.6603C9.24987 11.5702 9.25853 11.5046 9.25338 11.3815C9.27735 11.2739 9.32475 11.2371 9.41021 11.1681C9.49515 11.1226 9.57687 11.0827 9.66509 11.045C9.68963 11.0345 9.71417 11.0239 9.73946 11.013C10.1717 10.8331 10.6319 10.7237 11.1007 10.7638C11.6343 10.8232 11.6343 10.8232 12.1339 10.6939C12.2592 10.5585 12.3171 10.3976 12.3719 10.2238C12.4102 10.1154 12.4714 10.0326 12.5413 9.94201C12.5638 9.91215 12.5864 9.88228 12.6096 9.85151C12.6327 9.82192 12.6559 9.79233 12.6797 9.76184C12.7183 9.71255 12.7183 9.71255 12.7576 9.66227C12.9194 9.46004 13.0897 9.27235 13.2774 9.09387C13.2658 9.07066 13.2542 9.04746 13.2422 9.02355C11.5785 8.67804 9.6474 9.45082 8.39068 10.5001Z" stroke="#929FAD" stroke-width="0.351562" mask="url(#path-2-outside-1_223_4653)"/>
<path d="M17.5847 8.54444L17.5847 8.54442L17.5826 8.54452C16.3644 8.6035 15.0592 9.02912 14.1906 9.94925L14.1905 9.94924L14.1898 9.95008L14.1274 10.0179C13.53 10.6378 13.0623 11.3459 12.8277 12.1902L12.8276 12.1905L12.8061 12.269C12.5723 13.0705 12.5527 14.0714 12.7836 14.8788L12.7836 14.8788L12.7839 14.88L12.8063 14.9545C12.8064 14.9546 12.8064 14.9547 12.8064 14.9547C13.0794 15.8811 13.581 16.7258 14.3119 17.3681L14.3126 17.3686L14.4149 17.4568C14.4149 17.4569 14.415 17.4569 14.415 17.4569C15.0072 17.9736 15.6945 18.3197 16.4521 18.5122L16.4525 18.5123L16.5249 18.5304C16.525 18.5304 16.5251 18.5304 16.5252 18.5305C16.8996 18.6272 17.2604 18.6469 17.6373 18.6475H17.6375L17.7115 18.6474C19.0152 18.6463 20.2776 18.1693 21.2142 17.2421L21.2142 17.2422L21.2158 17.2405C22.3497 16.0573 22.7497 14.7505 22.723 13.1525L22.7231 13.1525L22.7229 13.1495C22.6602 11.9133 22.0262 10.7639 21.1564 9.92602L21.1557 9.92536C20.1956 9.02054 18.9101 8.51187 17.5847 8.54444ZM13.5368 12.4253L13.5368 12.4253L13.5371 12.4246C13.7259 11.8188 13.9939 11.2905 14.3989 10.8032C15.2481 9.83769 16.4985 9.23921 17.7906 9.27696C19.0449 9.38005 20.108 9.83092 20.9412 10.7867C20.9413 10.7868 20.9414 10.7869 20.9415 10.7871L21.0152 10.8734L21.0152 10.8734L21.0161 10.8745C21.4674 11.386 21.7466 12.0056 21.9071 12.6722C21.9072 12.6724 21.9072 12.6726 21.9073 12.6727L21.925 12.7506C21.9589 12.989 21.9751 13.1039 21.9817 13.2194C21.9875 13.321 21.9858 13.4235 21.9809 13.6115C21.7486 13.6122 21.5164 13.6127 21.2842 13.613L21.2525 13.6131C21.1301 13.6132 21.0077 13.6134 20.8853 13.6137H20.8853C20.7551 13.6141 20.6249 13.6145 20.4948 13.6146L20.3463 13.6147L20.346 13.6147L20.2012 13.6153L20.2009 13.6153L20.0669 13.6153H20.0667C20.0001 13.6154 19.9338 13.6146 19.8679 13.6119C19.6604 13.5394 19.5461 13.4061 19.4042 13.2118C19.3585 13.1477 19.3124 13.0841 19.2661 13.0206L19.266 13.0204L19.1845 12.9094L19.1842 12.9089L19.1809 12.9045C19.0091 12.6673 18.8344 12.4261 18.5867 12.2364L18.5868 12.2362L18.5814 12.2327C18.1568 11.9539 17.7364 11.9054 17.2502 11.9727L17.2501 11.972L17.2394 11.9749C16.7104 12.1175 16.4012 12.4891 16.1188 12.8954L16.1186 12.8956C15.9891 13.0831 15.8604 13.263 15.7153 13.4339C15.6118 13.5193 15.5187 13.5662 15.4205 13.5928C15.3188 13.6203 15.2072 13.6273 15.0638 13.6272C14.9945 13.6261 14.9247 13.625 14.8549 13.6247L14.8547 13.6247C14.7315 13.6243 14.6085 13.6235 14.4855 13.6219C14.3577 13.6203 14.2299 13.6193 14.1021 13.6186H14.1021C13.8567 13.6172 13.6113 13.6151 13.3658 13.6123C13.3705 13.2486 13.406 12.8708 13.5033 12.5295L13.5368 12.4253ZM14.8544 13.7125C14.924 13.7129 14.9935 13.714 15.0631 13.7151C15.3541 13.7152 15.5484 13.6878 15.7773 13.4966C15.9274 13.3205 16.0596 13.1357 16.1909 12.9455C16.4716 12.5418 16.7655 12.1937 17.2622 12.0598L14.8544 13.7125ZM16.615 13.4356C16.697 13.3172 16.7783 13.2 16.8626 13.085L20.3842 14.3366C20.5132 14.3383 20.6423 14.3395 20.7714 14.3401C20.9043 14.3406 21.0372 14.3417 21.1703 14.3431C21.4269 14.3458 21.6836 14.3478 21.9402 14.3492C21.9182 14.6577 21.7868 14.9996 21.6588 15.2915C21.1526 16.4037 20.3029 17.2254 19.1593 17.6709C18.1049 18.052 16.9057 18.0038 15.8903 17.5288C14.8287 17.0146 14.0144 16.1567 13.6209 15.0434C13.6209 15.0432 13.6208 15.0431 13.6208 15.0429L13.5935 14.9628L13.5934 14.9627C13.5473 14.8284 13.51 14.6979 13.485 14.5608L13.4669 14.4486L13.4669 14.4485C13.4615 14.4152 13.456 14.3818 13.4507 14.3485C13.6715 14.3461 13.8924 14.3435 14.1134 14.3405L14.1134 14.3405L14.1443 14.3401C14.2641 14.3385 14.3838 14.3369 14.5034 14.3356C14.6307 14.3342 14.7581 14.3328 14.8855 14.331L14.8856 14.331L15.0307 14.329L15.0311 14.329L15.1719 14.3278L15.1725 14.3278L15.3044 14.3256L15.3033 14.2378L15.3047 14.3256L15.3045 14.3256C15.4225 14.3242 15.4248 14.3241 15.5353 14.3141L15.5439 14.3133L15.5522 14.3108C16.0534 14.163 16.3228 13.8554 16.6014 13.4552L16.6015 13.455L16.615 13.4356Z" fill="#929FAD" stroke="#929FAD" stroke-width="0.175781"/>
<path d="M18.2498 13.3471L18.2502 13.3466L18.2407 13.3415C17.937 13.1785 17.6188 13.1238 17.2827 13.263L17.2826 13.2628L17.2763 13.266C16.9424 13.4368 16.7416 13.7025 16.6269 14.0512L16.6263 14.051L16.6242 14.0613C16.5515 14.4217 16.5532 14.836 16.7345 15.1807L16.7342 15.1809L16.7384 15.1874L16.8001 15.2833C16.9578 15.5337 17.1429 15.659 17.4074 15.7597L17.4073 15.76L17.4145 15.7621C17.6686 15.8349 17.904 15.8033 18.1364 15.6985L18.1367 15.6991L18.1455 15.6938C18.4311 15.5226 18.655 15.2481 18.7548 14.9287L18.7554 14.9289L18.7574 14.9182C18.823 14.5576 18.8268 14.1488 18.6443 13.8017L18.6446 13.8015L18.6404 13.795L18.5787 13.6991C18.4866 13.5529 18.3941 13.4488 18.2498 13.3471ZM17.5543 15.0347C17.4474 14.9315 17.3859 14.8164 17.3364 14.6661C17.3223 14.5287 17.3249 14.4185 17.3482 14.3163C17.3711 14.2157 17.4152 14.118 17.4906 14.007C17.5286 13.9775 17.557 13.9592 17.5855 13.9461C17.6133 13.9333 17.6446 13.924 17.6895 13.9166C17.7387 13.9245 17.769 13.9325 17.7953 13.9442C17.8216 13.9559 17.8484 13.9734 17.8875 14.006C18.0155 14.1923 18.0592 14.3586 18.0542 14.5876C18.0269 14.766 17.9421 14.906 17.804 15.0279C17.7497 15.0443 17.7115 15.0519 17.6757 15.0529C17.6413 15.054 17.6047 15.0491 17.5543 15.0347Z" fill="#929FAD" stroke="#929FAD" stroke-width="0.175781"/>
<path d="M12.057 20.1543L12.057 20.1543L12.0559 20.1542L11.9797 20.1459C11.9797 20.1459 11.9796 20.1459 11.9796 20.1459C11.7368 20.1187 11.4564 20.0931 11.1794 20.1042C10.9029 20.1153 10.6232 20.1631 10.3847 20.2871L10.3679 20.2958L10.3563 20.3106C10.3545 20.3128 10.3529 20.3149 10.3512 20.317C10.3232 20.3525 10.3024 20.3788 10.2884 20.4042C10.2725 20.4332 10.2659 20.4603 10.2587 20.4893C10.2583 20.4909 10.2579 20.4926 10.2575 20.4943L10.2557 20.5014L10.2552 20.5088C10.25 20.5787 10.2489 20.6408 10.2661 20.7017C10.2837 20.7642 10.318 20.8169 10.3671 20.8746L10.3782 20.8877L10.3934 20.8956C10.3958 20.8969 10.3983 20.8982 10.4007 20.8995C10.4656 20.9334 10.5156 20.9595 10.5874 20.9657C10.651 20.9711 10.7321 20.9608 10.8634 20.9441C10.8683 20.9435 10.8732 20.9429 10.8782 20.9423L10.8782 20.9423L10.8804 20.942C11.2451 20.8862 11.5779 20.8689 11.9387 20.9221C12.1038 20.9497 12.2643 20.9682 12.4386 20.9582L12.4624 20.9568L12.4823 20.9436L12.4845 20.9421C12.5346 20.9087 12.5786 20.8794 12.6128 20.8406C12.65 20.7984 12.6717 20.7504 12.6927 20.6873L12.6981 20.6711L12.697 20.6541C12.6902 20.5428 12.6799 20.4478 12.6051 20.3377L12.5959 20.3241L12.5823 20.3147C12.4175 20.201 12.2269 20.175 12.057 20.1543Z" fill="#929FAD" stroke="#929FAD" stroke-width="0.175781"/>
<path d="M8.99717 16.5057L8.9827 16.4974L8.96616 16.4949C8.89513 16.4842 8.8313 16.4763 8.76768 16.4848C8.70107 16.4936 8.64167 16.5193 8.57391 16.5627L8.55772 16.5731L8.54734 16.5893C8.54598 16.5914 8.54463 16.5935 8.5433 16.5956C8.51965 16.6324 8.49977 16.6634 8.48793 16.7017C8.47684 16.7375 8.47334 16.7784 8.46866 16.8329C8.4684 16.836 8.46813 16.8391 8.46785 16.8423L8.46718 16.8501L8.4679 16.858C8.47462 16.9305 8.48191 16.9887 8.50852 17.0422C8.53486 17.0952 8.57679 17.1365 8.62892 17.186L8.62868 17.1863L8.63477 17.1911C8.94831 17.4403 9.25046 17.4786 9.62938 17.4427L9.62941 17.4431L9.63689 17.4417C9.88533 17.3963 10.1017 17.2542 10.2532 17.0573L10.263 17.0446L10.2676 17.0294C10.2684 17.027 10.2691 17.0247 10.2698 17.0225C10.2847 16.9737 10.2967 16.9345 10.2967 16.886C10.2967 16.8421 10.2868 16.7914 10.2719 16.7162C10.2712 16.7126 10.2705 16.7091 10.2698 16.7054L10.2667 16.6896L10.2581 16.6758C10.2567 16.6735 10.2553 16.6713 10.2539 16.669C10.2306 16.6317 10.2118 16.6016 10.187 16.5768C10.1619 16.5517 10.1321 16.5334 10.0956 16.511C10.0935 16.5097 10.0913 16.5083 10.089 16.5069L10.0746 16.4981L10.058 16.4952C9.99516 16.4843 9.9344 16.4767 9.87264 16.4825C9.80889 16.4884 9.74865 16.5081 9.6843 16.5454L9.68416 16.5452L9.67845 16.5491C9.66846 16.556 9.65879 16.5627 9.6494 16.5693C9.56962 16.6247 9.50908 16.6668 9.43149 16.6881C9.37054 16.691 9.32581 16.6854 9.28525 16.6726C9.24203 16.659 9.19843 16.6357 9.14107 16.5971C9.06978 16.5479 9.06771 16.5466 8.99717 16.5057Z" fill="#929FAD" stroke="#929FAD" stroke-width="0.175781"/>
<path d="M19.2917 10.8388L19.2789 10.8355L19.2657 10.836C19.0957 10.843 18.9406 10.9585 18.8221 11.0824C18.7006 11.2096 18.601 11.3632 18.5425 11.4799L18.5324 11.5002L18.5333 11.5228C18.538 11.6415 18.5545 11.729 18.6171 11.8395L18.6289 11.8602L18.6495 11.8721C18.6509 11.873 18.6522 11.8737 18.6536 11.8745C18.6841 11.8923 18.7095 11.907 18.7447 11.9175C18.7757 11.9267 18.8143 11.9325 18.8723 11.9412C18.875 11.9416 18.8778 11.942 18.8805 11.9424L18.8888 11.9436L18.8972 11.9433C18.9841 11.9396 19.0545 11.9214 19.1194 11.8864C19.1821 11.8526 19.2351 11.8053 19.2893 11.7522L19.2894 11.7523L19.2916 11.7499L19.3516 11.6865C19.4428 11.598 19.5331 11.5065 19.6086 11.3918L19.6184 11.3769L19.6216 11.3594C19.6221 11.3566 19.6226 11.3539 19.6231 11.3513C19.6338 11.2932 19.6412 11.2528 19.6412 11.2139C19.6412 11.1738 19.6333 11.1367 19.6226 11.0863C19.6221 11.084 19.6216 11.0816 19.6211 11.0792L19.618 11.0643L19.61 11.0513C19.5686 10.984 19.5273 10.9369 19.4707 10.9033C19.4183 10.8722 19.3579 10.8563 19.2925 10.8391L19.2917 10.8388Z" fill="#929FAD" stroke="#929FAD" stroke-width="0.175781"/>
<path d="M16.3096 10.8801L16.297 10.8728L16.2827 10.8699C16.1301 10.8398 15.9959 10.8453 15.8499 10.9366L15.8324 10.9475L15.8216 10.965C15.8205 10.9669 15.8194 10.9687 15.8183 10.9705C15.7951 11.0082 15.7776 11.0366 15.7652 11.0702C15.7532 11.1025 15.7464 11.1385 15.7368 11.1895C15.7364 11.192 15.7359 11.1944 15.7354 11.197L15.7325 11.2124L15.7351 11.2279C15.7488 11.3085 15.7676 11.3709 15.8003 11.4291C15.8322 11.4859 15.8749 11.5337 15.9269 11.5876L15.9269 11.5876L15.929 11.5896L15.9922 11.6509C16.0009 11.66 16.0098 11.6694 16.0188 11.679C16.1126 11.7791 16.2238 11.8978 16.3915 11.9395L16.4003 11.9416L16.4093 11.942C16.517 11.9461 16.6213 11.9419 16.7296 11.8606L16.7395 11.8531L16.7469 11.8433C16.7791 11.8007 16.8013 11.7618 16.8143 11.7165C16.8267 11.6731 16.8291 11.6293 16.8303 11.5826L16.8305 11.5826L16.8303 11.5772C16.827 11.487 16.8111 11.4131 16.7768 11.3443C16.7432 11.2769 16.6947 11.2202 16.6365 11.1612L16.6365 11.1611L16.6339 11.1587L16.5735 11.1024C16.4969 11.0221 16.4176 10.9425 16.3096 10.8801Z" fill="#929FAD" stroke="#929FAD" stroke-width="0.175781"/>
<path d="M17.2962 10.8202C17.2966 10.9026 17.2987 10.9852 17.3029 11.0679L17.3021 11.0679L17.3043 11.0797C17.3153 11.1377 17.3275 11.1935 17.3542 11.2446C17.3823 11.2985 17.423 11.3409 17.4809 11.3815L17.4932 11.3901L17.5078 11.3942C17.5754 11.4129 17.6388 11.4292 17.7039 11.4297C17.7723 11.4302 17.8366 11.4136 17.9104 11.3779L17.927 11.3699L17.9389 11.3559C17.9412 11.3533 17.9434 11.3507 17.9456 11.3481C17.9907 11.2955 18.0285 11.2514 18.0464 11.1848C18.0623 11.1261 18.062 11.0509 18.0617 10.938C18.0617 10.9326 18.0617 10.9272 18.0617 10.9216L18.0617 10.9216L18.0616 10.9194L18.0586 10.8139C18.0589 10.7123 18.0577 10.6109 18.0558 10.5097L18.0557 10.5025L18.0544 10.4955C18.0447 10.4425 18.0317 10.3968 18.004 10.355C17.9769 10.3142 17.9405 10.2843 17.8999 10.2544L17.8861 10.2442L17.8694 10.2399C17.8664 10.2392 17.8635 10.2384 17.8605 10.2377C17.8027 10.2229 17.7441 10.208 17.6851 10.2055C17.6188 10.2026 17.5543 10.2152 17.4819 10.2505L17.4664 10.2579L17.455 10.2707C17.3374 10.4013 17.3057 10.5246 17.2949 10.6851L17.2946 10.6851L17.2947 10.6921L17.2962 10.8202ZM17.2962 10.8202C17.2962 10.8201 17.2962 10.82 17.2962 10.8199L17.3841 10.8195M17.2962 10.8202L17.2962 10.8205L17.3841 10.8195M17.3841 10.8195L17.3826 10.6911M17.3841 10.8195C17.3845 10.9008 17.3865 10.9822 17.3907 11.0634C17.4127 11.1794 17.4322 11.2401 17.5313 11.3095C17.668 11.3474 17.743 11.3613 17.8721 11.2988C17.9123 11.2518 17.9366 11.2233 17.9514 11.1905C17.9744 11.1396 17.9742 11.0782 17.9738 10.9219L17.9707 10.8151C17.971 10.7138 17.9698 10.6126 17.9679 10.5113L17.3826 10.6911M17.3826 10.6911C17.3926 10.5425 17.4203 10.4407 17.5203 10.3295L17.3826 10.6911Z" fill="#929FAD" stroke="#929FAD" stroke-width="0.175781"/>
<path d="M12.668 18.6252L12.6604 18.6234L12.6526 18.623C12.5693 18.6185 12.4873 18.6199 12.4118 18.6488C12.3325 18.6792 12.2707 18.7358 12.2182 18.8211L12.2073 18.8389L12.2055 18.8597C12.2051 18.8638 12.2048 18.8679 12.2044 18.872C12.1945 18.9851 12.1851 19.0939 12.2496 19.2229L12.2586 19.2409L12.2745 19.2532C12.3257 19.2927 12.3728 19.326 12.4276 19.3473C12.4841 19.3693 12.5422 19.3762 12.6134 19.3748L12.6262 19.3745L12.6384 19.3706C12.701 19.3506 12.7539 19.3299 12.8017 19.2966C12.8503 19.2628 12.8881 19.2199 12.9274 19.1638L12.9388 19.1476L12.9422 19.128C12.9542 19.0574 12.958 18.9978 12.9473 18.9371C12.9366 18.877 12.9129 18.8224 12.8807 18.7606L12.8728 18.7454L12.8597 18.7343C12.8574 18.7323 12.8551 18.7304 12.8529 18.7285C12.8156 18.6968 12.7881 18.6734 12.7618 18.6581C12.7309 18.64 12.7023 18.6333 12.673 18.6264C12.6714 18.626 12.6697 18.6256 12.668 18.6252Z" fill="#929FAD" stroke="#929FAD" stroke-width="0.175781"/>
<path d="M10.6286 14.8987L10.6211 14.897L10.6135 14.8966C10.5301 14.8919 10.4481 14.8932 10.3726 14.9222C10.2933 14.9527 10.2315 15.0093 10.179 15.0945L10.169 15.1108L10.1667 15.1297C10.1497 15.2657 10.1492 15.3679 10.211 15.5061L10.2193 15.5245L10.2348 15.5375C10.2949 15.5879 10.352 15.618 10.4158 15.634C10.4767 15.6492 10.5396 15.6504 10.6055 15.6504H10.627L10.6461 15.6404C10.6483 15.6392 10.6505 15.6381 10.6527 15.637C10.6969 15.6139 10.7294 15.597 10.7581 15.574C10.7868 15.551 10.8107 15.5229 10.8434 15.4845C10.845 15.4826 10.8466 15.4807 10.8482 15.4788L10.8599 15.465L10.8652 15.4478C10.8878 15.3748 10.9046 15.3099 10.9032 15.2424C10.9018 15.1727 10.8813 15.1084 10.8448 15.0338L10.8362 15.0163L10.821 15.004C10.8187 15.0022 10.8164 15.0003 10.8142 14.9985C10.7757 14.9676 10.7478 14.9451 10.7216 14.9304C10.6909 14.9132 10.6629 14.9067 10.6334 14.8998C10.6318 14.8995 10.6302 14.8991 10.6286 14.8987Z" fill="#929FAD" stroke="#929FAD" stroke-width="0.175781"/>
<path d="M9.31919 19.8138L9.30228 19.8022L9.28199 19.7993C9.19202 19.7865 9.10309 19.7785 9.02115 19.803C8.93335 19.8291 8.86604 19.888 8.80831 19.9804L8.79927 19.9948L8.7963 20.0116C8.77315 20.1424 8.76716 20.2801 8.84313 20.4186L8.85546 20.4411L8.87793 20.4534C8.87911 20.454 8.88027 20.4547 8.88142 20.4553C8.91243 20.4723 8.93535 20.4849 8.96595 20.4956C8.99394 20.5053 9.02823 20.5134 9.08274 20.5263C9.08478 20.5268 9.08685 20.5273 9.08894 20.5278L9.09664 20.5296L9.10454 20.53C9.1078 20.5302 9.11105 20.5304 9.1143 20.5305C9.16791 20.5334 9.21958 20.5362 9.26878 20.5268C9.32607 20.5158 9.37466 20.4902 9.42899 20.4479L9.43828 20.4407L9.44534 20.4313C9.48248 20.3817 9.5075 20.3371 9.5201 20.2846C9.53206 20.2347 9.53106 20.1839 9.52876 20.1288L9.52831 20.1181L9.52532 20.1078C9.50672 20.0441 9.48758 19.9897 9.45454 19.9409C9.42081 19.8911 9.37694 19.8533 9.31919 19.8138Z" fill="#929FAD" stroke="#929FAD" stroke-width="0.175781"/>
<path d="M10.7605 18.3724L10.7436 18.3608L10.7233 18.3579C10.6333 18.3451 10.5444 18.3371 10.4625 18.3615C10.3747 18.3877 10.3074 18.4466 10.2496 18.539L10.2415 18.552L10.2383 18.5669C10.2144 18.677 10.2123 18.7742 10.2386 18.8868L10.2431 18.9063L10.2557 18.9219C10.2574 18.9241 10.2591 18.9262 10.2608 18.9282C10.2921 18.9672 10.316 18.9969 10.3456 19.0206C10.3753 19.0443 10.4094 19.061 10.4541 19.0828C10.4564 19.084 10.4589 19.0852 10.4613 19.0864L10.4789 19.095L10.4984 19.0953C10.5756 19.0967 10.6425 19.0941 10.7072 19.0738C10.7735 19.0529 10.8297 19.0159 10.8918 18.9615L10.9039 18.9509L10.9115 18.9367C10.9128 18.9342 10.9142 18.9316 10.9155 18.9291C10.938 18.8872 10.956 18.8535 10.9652 18.8171C10.9746 18.7804 10.9746 18.7429 10.9746 18.6971C10.9746 18.6944 10.9746 18.6916 10.9746 18.6888V18.6743L10.9699 18.6605C10.9489 18.599 10.9281 18.5461 10.895 18.4985C10.8611 18.4497 10.8181 18.4118 10.7605 18.3724Z" fill="#929FAD" stroke="#929FAD" stroke-width="0.175781"/>
<path d="M8.72145 18.3724L8.70453 18.3608L8.68425 18.3579C8.59427 18.3451 8.50535 18.3371 8.4234 18.3615C8.33561 18.3877 8.2683 18.4466 8.21057 18.539L8.20246 18.552L8.19921 18.5669C8.1753 18.677 8.17325 18.7742 8.1995 18.8868L8.20406 18.9063L8.21663 18.9219C8.21835 18.9241 8.22005 18.9262 8.22172 18.9282C8.25302 18.9672 8.2769 18.9969 8.30655 19.0206C8.33624 19.0443 8.37037 19.061 8.41499 19.0828C8.41738 19.084 8.4198 19.0852 8.42225 19.0864L8.4398 19.095L8.45934 19.0953C8.53649 19.0967 8.60345 19.0941 8.6681 19.0738C8.73439 19.0529 8.79065 19.0159 8.85274 18.9615L8.86485 18.9509L8.87241 18.9367C8.87379 18.9342 8.87514 18.9316 8.87648 18.9291C8.8989 18.8872 8.91689 18.8535 8.92617 18.8171C8.93555 18.7804 8.93553 18.7429 8.93549 18.6971C8.93549 18.6944 8.93549 18.6916 8.93549 18.6888V18.6743L8.9308 18.6605C8.90986 18.599 8.88905 18.5461 8.85597 18.4985C8.82203 18.4497 8.77904 18.4118 8.72145 18.3724Z" fill="#929FAD" stroke="#929FAD" stroke-width="0.175781"/>
</g>
<defs>
<linearGradient id="paint0_linear_223_4653" x1="0.5" y1="0" x2="33.5291" y2="1.03141" gradientUnits="userSpaceOnUse">
<stop stop-color="#494949"/>
<stop offset="1" stop-color="#0A1C3B"/>
</linearGradient>
<clipPath id="clip0_223_4653">
<rect width="18" height="18" fill="white" transform="translate(6 6)"/>
</clipPath>
</defs>
</svg>
