<svg width="170" height="204" viewBox="0 0 170 204" fill="none" xmlns="http://www.w3.org/2000/svg">
<mask id="path-1-outside-1_223_4574" maskUnits="userSpaceOnUse" x="32.3032" y="44.9961" width="107" height="108" fill="black">
<rect fill="white" x="32.3032" y="44.9961" width="107" height="108"/>
<path fill-rule="evenodd" clip-rule="evenodd" d="M95.7912 49.0265C95.1388 48.8464 94.6597 48.2486 94.6597 47.539C94.6597 46.6869 95.3505 45.9961 96.2026 45.9961C97.0548 45.9961 97.7455 46.6869 97.7455 47.539C97.7455 48.2672 97.2411 48.8775 96.5626 49.0397V78.4744C96.5626 78.6173 96.4849 78.742 96.3695 78.8087H104.431V57.5125C103.779 57.3324 103.3 56.7347 103.3 56.025C103.3 55.1729 103.991 54.4821 104.843 54.4821C105.695 54.4821 106.386 55.1729 106.386 56.025C106.386 56.7532 105.881 57.3635 105.203 57.5257V78.8087H120.159C120.198 78.8087 120.236 78.814 120.272 78.824C120.447 78.1638 121.048 77.6772 121.764 77.6772C122.616 77.6772 123.306 78.368 123.306 79.2201C123.306 80.0723 122.616 80.7631 121.764 80.7631C121.055 80.7631 120.458 80.2857 120.277 79.6351C120.24 79.646 120.2 79.6518 120.159 79.6518H105.203V133.933C105.881 134.095 106.386 134.705 106.386 135.434C106.386 136.286 105.695 136.976 104.843 136.976C103.991 136.976 103.3 136.286 103.3 135.434C103.3 134.724 103.779 134.126 104.431 133.946V79.6518H70.6004C70.3676 79.6518 70.1788 79.4631 70.1788 79.2303C70.1788 78.9974 70.3676 78.8087 70.6004 78.8087H76.321C76.3068 78.7685 76.299 78.7252 76.299 78.6801V65.5654C76.299 65.3523 76.4717 65.1796 76.6848 65.1796C76.8978 65.1796 77.0705 65.3523 77.0705 65.5654V78.6801C77.0705 78.7252 77.0628 78.7685 77.0486 78.8087H95.9843C95.8689 78.742 95.7912 78.6173 95.7912 78.4744V49.0265ZM96.2026 47.0247C96.4867 47.0247 96.7169 47.255 96.7169 47.539C96.7169 47.7771 96.5552 47.9773 96.3356 48.0359C96.2872 48.0141 96.2335 48.0019 96.1769 48.0019C96.1286 48.0019 96.0824 48.0108 96.0397 48.027C95.8355 47.9588 95.6883 47.7661 95.6883 47.539C95.6883 47.255 95.9186 47.0247 96.2026 47.0247ZM105.357 56.025C105.357 55.741 105.127 55.5107 104.843 55.5107C104.559 55.5107 104.329 55.741 104.329 56.025C104.329 56.3091 104.559 56.5393 104.843 56.5393C105.127 56.5393 105.357 56.3091 105.357 56.025ZM104.843 134.919C105.127 134.919 105.357 135.15 105.357 135.434C105.357 135.718 105.127 135.948 104.843 135.948C104.559 135.948 104.329 135.718 104.329 135.434C104.329 135.15 104.559 134.919 104.843 134.919ZM122.278 79.2201C122.278 79.5042 122.048 79.7344 121.764 79.7344C121.479 79.7344 121.249 79.5042 121.249 79.2201C121.249 78.9361 121.479 78.7058 121.764 78.7058C122.048 78.7058 122.278 78.9361 122.278 79.2201Z"/>
<path fill-rule="evenodd" clip-rule="evenodd" d="M68.1216 144.382C68.1216 143.654 67.6172 143.044 66.9387 142.882V119.953H76.3762C76.3277 120.017 76.299 120.098 76.299 120.184V149.619C75.6206 149.781 75.1161 150.392 75.1161 151.12C75.1161 151.972 75.8069 152.663 76.6591 152.663C77.5112 152.663 78.202 151.972 78.202 151.12C78.202 150.41 77.7229 149.812 77.0705 149.632V120.184C77.0705 120.098 77.0418 120.017 76.9934 119.953H95.792C95.7915 119.962 95.7912 119.97 95.7912 119.979V133.093C95.7912 133.307 95.9639 133.479 96.1769 133.479C96.3899 133.479 96.5626 133.307 96.5626 133.093V119.979C96.5626 119.97 96.5624 119.962 96.5618 119.953H100.924C101.157 119.953 101.346 119.764 101.346 119.531C101.346 119.299 101.157 119.11 100.924 119.11H66.9387V66.4746C67.6172 66.3124 68.1216 65.7021 68.1216 64.9739C68.1216 64.1218 67.4308 63.431 66.5787 63.431C65.7266 63.431 65.0358 64.1218 65.0358 64.9739C65.0358 65.6836 65.5149 66.2813 66.1673 66.4614V95.7275C66.0945 95.6678 66.0014 95.6319 65.9 95.6319H38.4564C38.4327 95.6319 38.4094 95.6339 38.3867 95.6376C38.2019 94.9927 37.6077 94.5207 36.9034 94.5207C36.0512 94.5207 35.3604 95.2115 35.3604 96.0636C35.3604 96.9157 36.0512 97.6065 36.9034 97.6065C37.6148 97.6065 38.2137 97.125 38.3921 96.4702C38.4131 96.4734 38.4345 96.475 38.4564 96.475H65.9C66.0014 96.475 66.0945 96.4392 66.1673 96.3795V119.11H51.3654C51.3245 119.11 51.2849 119.116 51.2474 119.127C51.0662 118.476 50.4693 117.999 49.761 117.999C48.9088 117.999 48.218 118.689 48.218 119.542C48.218 120.394 48.9088 121.084 49.761 121.084C50.4761 121.084 51.0777 120.598 51.2525 119.938C51.2885 119.948 51.3263 119.953 51.3654 119.953H66.1673V142.895C65.5149 143.075 65.0358 143.673 65.0358 144.382C65.0358 145.235 65.7266 145.925 66.5787 145.925C67.4308 145.925 68.1216 145.235 68.1216 144.382ZM66.5787 64.4596C66.8627 64.4596 67.093 64.6899 67.093 64.9739C67.093 65.258 66.8627 65.4882 66.5787 65.4882C66.2947 65.4882 66.0644 65.258 66.0644 64.9739C66.0644 64.6899 66.2947 64.4596 66.5787 64.4596ZM67.093 144.382C67.093 144.098 66.8627 143.868 66.5787 143.868C66.2947 143.868 66.0644 144.098 66.0644 144.382C66.0644 144.667 66.2947 144.897 66.5787 144.897C66.8627 144.897 67.093 144.667 67.093 144.382ZM76.1448 151.12C76.1448 150.882 76.3065 150.682 76.5261 150.623C76.5745 150.645 76.6282 150.657 76.6848 150.657C76.7331 150.657 76.7793 150.648 76.8219 150.632C77.0262 150.7 77.1734 150.893 77.1734 151.12C77.1734 151.404 76.9431 151.634 76.6591 151.634C76.375 151.634 76.1448 151.404 76.1448 151.12ZM36.389 96.0636C36.389 95.7796 36.6193 95.5493 36.9034 95.5493C37.1874 95.5493 37.4177 95.7796 37.4177 96.0636C37.4177 96.3476 37.1874 96.5779 36.9034 96.5779C36.6193 96.5779 36.389 96.3476 36.389 96.0636ZM49.2467 119.542C49.2467 119.258 49.4769 119.027 49.761 119.027C50.045 119.027 50.2753 119.258 50.2753 119.542C50.2753 119.826 50.045 120.056 49.761 120.056C49.4769 120.056 49.2467 119.826 49.2467 119.542Z"/>
<path fill-rule="evenodd" clip-rule="evenodd" d="M86.7909 124.607V136.659C87.4693 136.821 87.9738 137.431 87.9738 138.159C87.9738 139.012 87.283 139.702 86.4308 139.702C85.5787 139.702 84.8879 139.012 84.8879 138.159C84.8879 137.45 85.367 136.852 86.0194 136.672V124.607C86.0194 124.394 86.1921 124.222 86.4051 124.222C86.6182 124.222 86.7909 124.394 86.7909 124.607ZM86.9451 138.159C86.9451 137.875 86.7149 137.645 86.4308 137.645C86.1468 137.645 85.9165 137.875 85.9165 138.159C85.9165 138.443 86.1468 138.674 86.4308 138.674C86.7149 138.674 86.9451 138.443 86.9451 138.159Z"/>
<path fill-rule="evenodd" clip-rule="evenodd" d="M86.0194 76.4172C86.0194 76.6302 86.1921 76.8029 86.4051 76.8029C86.6182 76.8029 86.7909 76.6302 86.7909 76.4172V64.331C86.7909 64.2337 86.7548 64.1449 86.6954 64.077C87.4215 63.9515 87.9738 63.3186 87.9738 62.5567C87.9738 61.7046 87.283 61.0138 86.4308 61.0138C85.5787 61.0138 84.8879 61.7046 84.8879 62.5567C84.8879 63.3032 85.418 63.9258 86.1223 64.0687C86.0584 64.1376 86.0194 64.2297 86.0194 64.331V76.4172ZM86.9451 62.5567C86.9451 62.2726 86.7149 62.0424 86.4308 62.0424C86.1468 62.0424 85.9165 62.2726 85.9165 62.5567C85.9165 62.8407 86.1468 63.071 86.4308 63.071C86.7149 63.071 86.9451 62.8407 86.9451 62.5567Z"/>
<path fill-rule="evenodd" clip-rule="evenodd" d="M136.267 103.804C136.267 104.656 135.576 105.347 134.724 105.347C134.02 105.347 133.425 104.875 133.241 104.23C133.218 104.234 133.195 104.236 133.171 104.236H105.727C105.495 104.236 105.306 104.047 105.306 103.814C105.306 103.581 105.495 103.392 105.727 103.392H133.171C133.193 103.392 133.214 103.394 133.235 103.397C133.414 102.742 134.013 102.261 134.724 102.261C135.576 102.261 136.267 102.952 136.267 103.804ZM135.238 103.804C135.238 104.088 135.008 104.318 134.724 104.318C134.44 104.318 134.21 104.088 134.21 103.804C134.21 103.52 134.44 103.29 134.724 103.29C135.008 103.29 135.238 103.52 135.238 103.804Z"/>
<path fill-rule="evenodd" clip-rule="evenodd" d="M138.324 113.524C138.324 114.376 137.633 115.067 136.781 115.067C136.017 115.067 135.383 114.512 135.26 113.783C135.183 113.888 135.059 113.956 134.92 113.956H112.619C112.386 113.956 112.197 113.767 112.197 113.534C112.197 113.302 112.386 113.113 112.619 113.113H134.92C135.058 113.113 135.18 113.179 135.257 113.282C135.373 112.545 136.012 111.981 136.781 111.981C137.633 111.981 138.324 112.672 138.324 113.524ZM137.296 113.524C137.296 113.808 137.065 114.039 136.781 114.039C136.497 114.039 136.267 113.808 136.267 113.524C136.267 113.24 136.497 113.01 136.781 113.01C137.065 113.01 137.296 113.24 137.296 113.524Z"/>
<path fill-rule="evenodd" clip-rule="evenodd" d="M108.083 93.6464C107.87 93.6464 107.697 93.8191 107.697 94.0321C107.697 94.2451 107.87 94.4178 108.083 94.4178H120.169C120.266 94.4178 120.355 94.3818 120.423 94.3224C120.549 95.0484 121.182 95.6007 121.944 95.6007C122.796 95.6007 123.486 94.9099 123.486 94.0578C123.486 93.2057 122.796 92.5149 121.944 92.5149C121.197 92.5149 120.574 93.045 120.431 93.7493C120.363 93.6854 120.27 93.6464 120.169 93.6464H108.083ZM121.944 94.5721C122.228 94.5721 122.458 94.3419 122.458 94.0578C122.458 93.7738 122.228 93.5435 121.944 93.5435C121.66 93.5435 121.429 93.7738 121.429 94.0578C121.429 94.3419 121.66 94.5721 121.944 94.5721Z"/>
<path fill-rule="evenodd" clip-rule="evenodd" d="M122.098 123.707C122.311 123.707 122.484 123.535 122.484 123.322C122.484 123.109 122.311 122.936 122.098 122.936H115.241C115.079 122.258 114.469 121.753 113.74 121.753C112.888 121.753 112.197 122.444 112.197 123.296C112.197 124.148 112.888 124.839 113.74 124.839C114.45 124.839 115.048 124.36 115.228 123.707H122.098ZM113.74 122.782C113.456 122.782 113.226 123.012 113.226 123.296C113.226 123.58 113.456 123.81 113.74 123.81C114.024 123.81 114.255 123.58 114.255 123.296C114.255 123.012 114.024 122.782 113.74 122.782Z"/>
<path fill-rule="evenodd" clip-rule="evenodd" d="M33.3032 86.3433C33.3032 85.4911 33.994 84.8003 34.8461 84.8003C35.61 84.8003 36.2443 85.3555 36.3674 86.0843C36.4441 85.9796 36.568 85.9116 36.7077 85.9116H59.0083C59.2411 85.9116 59.4299 86.1003 59.4299 86.3331C59.4299 86.566 59.2411 86.7547 59.0083 86.7547H36.7077C36.5696 86.7547 36.447 86.6883 36.3701 86.5856C36.2538 87.3226 35.6158 87.8862 34.8461 87.8862C33.994 87.8862 33.3032 87.1954 33.3032 86.3433ZM34.3318 86.3433C34.3318 86.0592 34.5621 85.8289 34.8461 85.8289C35.1302 85.8289 35.3604 86.0592 35.3604 86.3433C35.3604 86.6273 35.1302 86.8576 34.8461 86.8576C34.5621 86.8576 34.3318 86.6273 34.3318 86.3433Z"/>
<path fill-rule="evenodd" clip-rule="evenodd" d="M63.5443 106.221C63.7573 106.221 63.93 106.048 63.93 105.835C63.93 105.622 63.7573 105.45 63.5443 105.45H51.4582C51.3609 105.45 51.272 105.486 51.2041 105.545C51.0787 104.819 50.4457 104.267 49.6838 104.267C48.8317 104.267 48.1409 104.958 48.1409 105.81C48.1409 106.662 48.8317 107.353 49.6838 107.353C50.4303 107.353 51.0529 106.822 51.1959 106.118C51.2647 106.182 51.3569 106.221 51.4582 106.221H63.5443ZM49.6838 105.295C49.3998 105.295 49.1695 105.526 49.1695 105.81C49.1695 106.094 49.3998 106.324 49.6838 106.324C49.9679 106.324 50.1981 106.094 50.1981 105.81C50.1981 105.526 49.9679 105.295 49.6838 105.295Z"/>
<path fill-rule="evenodd" clip-rule="evenodd" d="M49.5295 76.16C49.3165 76.16 49.1438 76.3327 49.1438 76.5458C49.1438 76.7588 49.3165 76.9315 49.5295 76.9315H56.3863C56.5484 77.61 57.1588 78.1144 57.887 78.1144C58.7391 78.1144 59.4299 77.4236 59.4299 76.5715C59.4299 75.7193 58.7391 75.0286 57.887 75.0286C57.1773 75.0286 56.5796 75.5076 56.3995 76.16H49.5295ZM57.887 77.0858C58.171 77.0858 58.4013 76.8555 58.4013 76.5715C58.4013 76.2874 58.171 76.0572 57.887 76.0572C57.6029 76.0572 57.3727 76.2874 57.3727 76.5715C57.3727 76.8555 57.6029 77.0858 57.887 77.0858Z"/>
<path d="M77.7421 91.1596L73.2068 111.621H78.0585L80.3789 101.004L78.2695 91.1596H77.7421Z"/>
<path d="M81.7501 103.781L80.6953 108.633H84.3517L85.0549 111.621H89.9769L84.1759 87.011H79.289L83.0157 103.781H81.7501Z"/>
<path d="M92.1215 87.011V111.621H97.0787V87.011H92.1215Z"/>
</mask>
<path fill-rule="evenodd" clip-rule="evenodd" d="M95.7912 49.0265C95.1388 48.8464 94.6597 48.2486 94.6597 47.539C94.6597 46.6869 95.3505 45.9961 96.2026 45.9961C97.0548 45.9961 97.7455 46.6869 97.7455 47.539C97.7455 48.2672 97.2411 48.8775 96.5626 49.0397V78.4744C96.5626 78.6173 96.4849 78.742 96.3695 78.8087H104.431V57.5125C103.779 57.3324 103.3 56.7347 103.3 56.025C103.3 55.1729 103.991 54.4821 104.843 54.4821C105.695 54.4821 106.386 55.1729 106.386 56.025C106.386 56.7532 105.881 57.3635 105.203 57.5257V78.8087H120.159C120.198 78.8087 120.236 78.814 120.272 78.824C120.447 78.1638 121.048 77.6772 121.764 77.6772C122.616 77.6772 123.306 78.368 123.306 79.2201C123.306 80.0723 122.616 80.7631 121.764 80.7631C121.055 80.7631 120.458 80.2857 120.277 79.6351C120.24 79.646 120.2 79.6518 120.159 79.6518H105.203V133.933C105.881 134.095 106.386 134.705 106.386 135.434C106.386 136.286 105.695 136.976 104.843 136.976C103.991 136.976 103.3 136.286 103.3 135.434C103.3 134.724 103.779 134.126 104.431 133.946V79.6518H70.6004C70.3676 79.6518 70.1788 79.4631 70.1788 79.2303C70.1788 78.9974 70.3676 78.8087 70.6004 78.8087H76.321C76.3068 78.7685 76.299 78.7252 76.299 78.6801V65.5654C76.299 65.3523 76.4717 65.1796 76.6848 65.1796C76.8978 65.1796 77.0705 65.3523 77.0705 65.5654V78.6801C77.0705 78.7252 77.0628 78.7685 77.0486 78.8087H95.9843C95.8689 78.742 95.7912 78.6173 95.7912 78.4744V49.0265ZM96.2026 47.0247C96.4867 47.0247 96.7169 47.255 96.7169 47.539C96.7169 47.7771 96.5552 47.9773 96.3356 48.0359C96.2872 48.0141 96.2335 48.0019 96.1769 48.0019C96.1286 48.0019 96.0824 48.0108 96.0397 48.027C95.8355 47.9588 95.6883 47.7661 95.6883 47.539C95.6883 47.255 95.9186 47.0247 96.2026 47.0247ZM105.357 56.025C105.357 55.741 105.127 55.5107 104.843 55.5107C104.559 55.5107 104.329 55.741 104.329 56.025C104.329 56.3091 104.559 56.5393 104.843 56.5393C105.127 56.5393 105.357 56.3091 105.357 56.025ZM104.843 134.919C105.127 134.919 105.357 135.15 105.357 135.434C105.357 135.718 105.127 135.948 104.843 135.948C104.559 135.948 104.329 135.718 104.329 135.434C104.329 135.15 104.559 134.919 104.843 134.919ZM122.278 79.2201C122.278 79.5042 122.048 79.7344 121.764 79.7344C121.479 79.7344 121.249 79.5042 121.249 79.2201C121.249 78.9361 121.479 78.7058 121.764 78.7058C122.048 78.7058 122.278 78.9361 122.278 79.2201Z" fill="#0A1C3B"/>
<path fill-rule="evenodd" clip-rule="evenodd" d="M68.1216 144.382C68.1216 143.654 67.6172 143.044 66.9387 142.882V119.953H76.3762C76.3277 120.017 76.299 120.098 76.299 120.184V149.619C75.6206 149.781 75.1161 150.392 75.1161 151.12C75.1161 151.972 75.8069 152.663 76.6591 152.663C77.5112 152.663 78.202 151.972 78.202 151.12C78.202 150.41 77.7229 149.812 77.0705 149.632V120.184C77.0705 120.098 77.0418 120.017 76.9934 119.953H95.792C95.7915 119.962 95.7912 119.97 95.7912 119.979V133.093C95.7912 133.307 95.9639 133.479 96.1769 133.479C96.3899 133.479 96.5626 133.307 96.5626 133.093V119.979C96.5626 119.97 96.5624 119.962 96.5618 119.953H100.924C101.157 119.953 101.346 119.764 101.346 119.531C101.346 119.299 101.157 119.11 100.924 119.11H66.9387V66.4746C67.6172 66.3124 68.1216 65.7021 68.1216 64.9739C68.1216 64.1218 67.4308 63.431 66.5787 63.431C65.7266 63.431 65.0358 64.1218 65.0358 64.9739C65.0358 65.6836 65.5149 66.2813 66.1673 66.4614V95.7275C66.0945 95.6678 66.0014 95.6319 65.9 95.6319H38.4564C38.4327 95.6319 38.4094 95.6339 38.3867 95.6376C38.2019 94.9927 37.6077 94.5207 36.9034 94.5207C36.0512 94.5207 35.3604 95.2115 35.3604 96.0636C35.3604 96.9157 36.0512 97.6065 36.9034 97.6065C37.6148 97.6065 38.2137 97.125 38.3921 96.4702C38.4131 96.4734 38.4345 96.475 38.4564 96.475H65.9C66.0014 96.475 66.0945 96.4392 66.1673 96.3795V119.11H51.3654C51.3245 119.11 51.2849 119.116 51.2474 119.127C51.0662 118.476 50.4693 117.999 49.761 117.999C48.9088 117.999 48.218 118.689 48.218 119.542C48.218 120.394 48.9088 121.084 49.761 121.084C50.4761 121.084 51.0777 120.598 51.2525 119.938C51.2885 119.948 51.3263 119.953 51.3654 119.953H66.1673V142.895C65.5149 143.075 65.0358 143.673 65.0358 144.382C65.0358 145.235 65.7266 145.925 66.5787 145.925C67.4308 145.925 68.1216 145.235 68.1216 144.382ZM66.5787 64.4596C66.8627 64.4596 67.093 64.6899 67.093 64.9739C67.093 65.258 66.8627 65.4882 66.5787 65.4882C66.2947 65.4882 66.0644 65.258 66.0644 64.9739C66.0644 64.6899 66.2947 64.4596 66.5787 64.4596ZM67.093 144.382C67.093 144.098 66.8627 143.868 66.5787 143.868C66.2947 143.868 66.0644 144.098 66.0644 144.382C66.0644 144.667 66.2947 144.897 66.5787 144.897C66.8627 144.897 67.093 144.667 67.093 144.382ZM76.1448 151.12C76.1448 150.882 76.3065 150.682 76.5261 150.623C76.5745 150.645 76.6282 150.657 76.6848 150.657C76.7331 150.657 76.7793 150.648 76.8219 150.632C77.0262 150.7 77.1734 150.893 77.1734 151.12C77.1734 151.404 76.9431 151.634 76.6591 151.634C76.375 151.634 76.1448 151.404 76.1448 151.12ZM36.389 96.0636C36.389 95.7796 36.6193 95.5493 36.9034 95.5493C37.1874 95.5493 37.4177 95.7796 37.4177 96.0636C37.4177 96.3476 37.1874 96.5779 36.9034 96.5779C36.6193 96.5779 36.389 96.3476 36.389 96.0636ZM49.2467 119.542C49.2467 119.258 49.4769 119.027 49.761 119.027C50.045 119.027 50.2753 119.258 50.2753 119.542C50.2753 119.826 50.045 120.056 49.761 120.056C49.4769 120.056 49.2467 119.826 49.2467 119.542Z" fill="#0A1C3B"/>
<path fill-rule="evenodd" clip-rule="evenodd" d="M86.7909 124.607V136.659C87.4693 136.821 87.9738 137.431 87.9738 138.159C87.9738 139.012 87.283 139.702 86.4308 139.702C85.5787 139.702 84.8879 139.012 84.8879 138.159C84.8879 137.45 85.367 136.852 86.0194 136.672V124.607C86.0194 124.394 86.1921 124.222 86.4051 124.222C86.6182 124.222 86.7909 124.394 86.7909 124.607ZM86.9451 138.159C86.9451 137.875 86.7149 137.645 86.4308 137.645C86.1468 137.645 85.9165 137.875 85.9165 138.159C85.9165 138.443 86.1468 138.674 86.4308 138.674C86.7149 138.674 86.9451 138.443 86.9451 138.159Z" fill="#0A1C3B"/>
<path fill-rule="evenodd" clip-rule="evenodd" d="M86.0194 76.4172C86.0194 76.6302 86.1921 76.8029 86.4051 76.8029C86.6182 76.8029 86.7909 76.6302 86.7909 76.4172V64.331C86.7909 64.2337 86.7548 64.1449 86.6954 64.077C87.4215 63.9515 87.9738 63.3186 87.9738 62.5567C87.9738 61.7046 87.283 61.0138 86.4308 61.0138C85.5787 61.0138 84.8879 61.7046 84.8879 62.5567C84.8879 63.3032 85.418 63.9258 86.1223 64.0687C86.0584 64.1376 86.0194 64.2297 86.0194 64.331V76.4172ZM86.9451 62.5567C86.9451 62.2726 86.7149 62.0424 86.4308 62.0424C86.1468 62.0424 85.9165 62.2726 85.9165 62.5567C85.9165 62.8407 86.1468 63.071 86.4308 63.071C86.7149 63.071 86.9451 62.8407 86.9451 62.5567Z" fill="#0A1C3B"/>
<path fill-rule="evenodd" clip-rule="evenodd" d="M136.267 103.804C136.267 104.656 135.576 105.347 134.724 105.347C134.02 105.347 133.425 104.875 133.241 104.23C133.218 104.234 133.195 104.236 133.171 104.236H105.727C105.495 104.236 105.306 104.047 105.306 103.814C105.306 103.581 105.495 103.392 105.727 103.392H133.171C133.193 103.392 133.214 103.394 133.235 103.397C133.414 102.742 134.013 102.261 134.724 102.261C135.576 102.261 136.267 102.952 136.267 103.804ZM135.238 103.804C135.238 104.088 135.008 104.318 134.724 104.318C134.44 104.318 134.21 104.088 134.21 103.804C134.21 103.52 134.44 103.29 134.724 103.29C135.008 103.29 135.238 103.52 135.238 103.804Z" fill="#0A1C3B"/>
<path fill-rule="evenodd" clip-rule="evenodd" d="M138.324 113.524C138.324 114.376 137.633 115.067 136.781 115.067C136.017 115.067 135.383 114.512 135.26 113.783C135.183 113.888 135.059 113.956 134.92 113.956H112.619C112.386 113.956 112.197 113.767 112.197 113.534C112.197 113.302 112.386 113.113 112.619 113.113H134.92C135.058 113.113 135.18 113.179 135.257 113.282C135.373 112.545 136.012 111.981 136.781 111.981C137.633 111.981 138.324 112.672 138.324 113.524ZM137.296 113.524C137.296 113.808 137.065 114.039 136.781 114.039C136.497 114.039 136.267 113.808 136.267 113.524C136.267 113.24 136.497 113.01 136.781 113.01C137.065 113.01 137.296 113.24 137.296 113.524Z" fill="#0A1C3B"/>
<path fill-rule="evenodd" clip-rule="evenodd" d="M108.083 93.6464C107.87 93.6464 107.697 93.8191 107.697 94.0321C107.697 94.2451 107.87 94.4178 108.083 94.4178H120.169C120.266 94.4178 120.355 94.3818 120.423 94.3224C120.549 95.0484 121.182 95.6007 121.944 95.6007C122.796 95.6007 123.486 94.9099 123.486 94.0578C123.486 93.2057 122.796 92.5149 121.944 92.5149C121.197 92.5149 120.574 93.045 120.431 93.7493C120.363 93.6854 120.27 93.6464 120.169 93.6464H108.083ZM121.944 94.5721C122.228 94.5721 122.458 94.3419 122.458 94.0578C122.458 93.7738 122.228 93.5435 121.944 93.5435C121.66 93.5435 121.429 93.7738 121.429 94.0578C121.429 94.3419 121.66 94.5721 121.944 94.5721Z" fill="#0A1C3B"/>
<path fill-rule="evenodd" clip-rule="evenodd" d="M122.098 123.707C122.311 123.707 122.484 123.535 122.484 123.322C122.484 123.109 122.311 122.936 122.098 122.936H115.241C115.079 122.258 114.469 121.753 113.74 121.753C112.888 121.753 112.197 122.444 112.197 123.296C112.197 124.148 112.888 124.839 113.74 124.839C114.45 124.839 115.048 124.36 115.228 123.707H122.098ZM113.74 122.782C113.456 122.782 113.226 123.012 113.226 123.296C113.226 123.58 113.456 123.81 113.74 123.81C114.024 123.81 114.255 123.58 114.255 123.296C114.255 123.012 114.024 122.782 113.74 122.782Z" fill="#0A1C3B"/>
<path fill-rule="evenodd" clip-rule="evenodd" d="M33.3032 86.3433C33.3032 85.4911 33.994 84.8003 34.8461 84.8003C35.61 84.8003 36.2443 85.3555 36.3674 86.0843C36.4441 85.9796 36.568 85.9116 36.7077 85.9116H59.0083C59.2411 85.9116 59.4299 86.1003 59.4299 86.3331C59.4299 86.566 59.2411 86.7547 59.0083 86.7547H36.7077C36.5696 86.7547 36.447 86.6883 36.3701 86.5856C36.2538 87.3226 35.6158 87.8862 34.8461 87.8862C33.994 87.8862 33.3032 87.1954 33.3032 86.3433ZM34.3318 86.3433C34.3318 86.0592 34.5621 85.8289 34.8461 85.8289C35.1302 85.8289 35.3604 86.0592 35.3604 86.3433C35.3604 86.6273 35.1302 86.8576 34.8461 86.8576C34.5621 86.8576 34.3318 86.6273 34.3318 86.3433Z" fill="#0A1C3B"/>
<path fill-rule="evenodd" clip-rule="evenodd" d="M63.5443 106.221C63.7573 106.221 63.93 106.048 63.93 105.835C63.93 105.622 63.7573 105.45 63.5443 105.45H51.4582C51.3609 105.45 51.272 105.486 51.2041 105.545C51.0787 104.819 50.4457 104.267 49.6838 104.267C48.8317 104.267 48.1409 104.958 48.1409 105.81C48.1409 106.662 48.8317 107.353 49.6838 107.353C50.4303 107.353 51.0529 106.822 51.1959 106.118C51.2647 106.182 51.3569 106.221 51.4582 106.221H63.5443ZM49.6838 105.295C49.3998 105.295 49.1695 105.526 49.1695 105.81C49.1695 106.094 49.3998 106.324 49.6838 106.324C49.9679 106.324 50.1981 106.094 50.1981 105.81C50.1981 105.526 49.9679 105.295 49.6838 105.295Z" fill="#0A1C3B"/>
<path fill-rule="evenodd" clip-rule="evenodd" d="M49.5295 76.16C49.3165 76.16 49.1438 76.3327 49.1438 76.5458C49.1438 76.7588 49.3165 76.9315 49.5295 76.9315H56.3863C56.5484 77.61 57.1588 78.1144 57.887 78.1144C58.7391 78.1144 59.4299 77.4236 59.4299 76.5715C59.4299 75.7193 58.7391 75.0286 57.887 75.0286C57.1773 75.0286 56.5796 75.5076 56.3995 76.16H49.5295ZM57.887 77.0858C58.171 77.0858 58.4013 76.8555 58.4013 76.5715C58.4013 76.2874 58.171 76.0572 57.887 76.0572C57.6029 76.0572 57.3727 76.2874 57.3727 76.5715C57.3727 76.8555 57.6029 77.0858 57.887 77.0858Z" fill="#0A1C3B"/>
<path d="M77.7421 91.1596L73.2068 111.621H78.0585L80.3789 101.004L78.2695 91.1596H77.7421Z" fill="#0A1C3B"/>
<path d="M81.7501 103.781L80.6953 108.633H84.3517L85.0549 111.621H89.9769L84.1759 87.011H79.289L83.0157 103.781H81.7501Z" fill="#0A1C3B"/>
<path d="M92.1215 87.011V111.621H97.0787V87.011H92.1215Z" fill="#0A1C3B"/>
<path fill-rule="evenodd" clip-rule="evenodd" d="M95.7912 49.0265C95.1388 48.8464 94.6597 48.2486 94.6597 47.539C94.6597 46.6869 95.3505 45.9961 96.2026 45.9961C97.0548 45.9961 97.7455 46.6869 97.7455 47.539C97.7455 48.2672 97.2411 48.8775 96.5626 49.0397V78.4744C96.5626 78.6173 96.4849 78.742 96.3695 78.8087H104.431V57.5125C103.779 57.3324 103.3 56.7347 103.3 56.025C103.3 55.1729 103.991 54.4821 104.843 54.4821C105.695 54.4821 106.386 55.1729 106.386 56.025C106.386 56.7532 105.881 57.3635 105.203 57.5257V78.8087H120.159C120.198 78.8087 120.236 78.814 120.272 78.824C120.447 78.1638 121.048 77.6772 121.764 77.6772C122.616 77.6772 123.306 78.368 123.306 79.2201C123.306 80.0723 122.616 80.7631 121.764 80.7631C121.055 80.7631 120.458 80.2857 120.277 79.6351C120.24 79.646 120.2 79.6518 120.159 79.6518H105.203V133.933C105.881 134.095 106.386 134.705 106.386 135.434C106.386 136.286 105.695 136.976 104.843 136.976C103.991 136.976 103.3 136.286 103.3 135.434C103.3 134.724 103.779 134.126 104.431 133.946V79.6518H70.6004C70.3676 79.6518 70.1788 79.4631 70.1788 79.2303C70.1788 78.9974 70.3676 78.8087 70.6004 78.8087H76.321C76.3068 78.7685 76.299 78.7252 76.299 78.6801V65.5654C76.299 65.3523 76.4717 65.1796 76.6848 65.1796C76.8978 65.1796 77.0705 65.3523 77.0705 65.5654V78.6801C77.0705 78.7252 77.0628 78.7685 77.0486 78.8087H95.9843C95.8689 78.742 95.7912 78.6173 95.7912 78.4744V49.0265ZM96.2026 47.0247C96.4867 47.0247 96.7169 47.255 96.7169 47.539C96.7169 47.7771 96.5552 47.9773 96.3356 48.0359C96.2872 48.0141 96.2335 48.0019 96.1769 48.0019C96.1286 48.0019 96.0824 48.0108 96.0397 48.027C95.8355 47.9588 95.6883 47.7661 95.6883 47.539C95.6883 47.255 95.9186 47.0247 96.2026 47.0247ZM105.357 56.025C105.357 55.741 105.127 55.5107 104.843 55.5107C104.559 55.5107 104.329 55.741 104.329 56.025C104.329 56.3091 104.559 56.5393 104.843 56.5393C105.127 56.5393 105.357 56.3091 105.357 56.025ZM104.843 134.919C105.127 134.919 105.357 135.15 105.357 135.434C105.357 135.718 105.127 135.948 104.843 135.948C104.559 135.948 104.329 135.718 104.329 135.434C104.329 135.15 104.559 134.919 104.843 134.919ZM122.278 79.2201C122.278 79.5042 122.048 79.7344 121.764 79.7344C121.479 79.7344 121.249 79.5042 121.249 79.2201C121.249 78.9361 121.479 78.7058 121.764 78.7058C122.048 78.7058 122.278 78.9361 122.278 79.2201Z" stroke="#0A1C3B" stroke-width="0.102861" mask="url(#path-1-outside-1_223_4574)"/>
<path fill-rule="evenodd" clip-rule="evenodd" d="M68.1216 144.382C68.1216 143.654 67.6172 143.044 66.9387 142.882V119.953H76.3762C76.3277 120.017 76.299 120.098 76.299 120.184V149.619C75.6206 149.781 75.1161 150.392 75.1161 151.12C75.1161 151.972 75.8069 152.663 76.6591 152.663C77.5112 152.663 78.202 151.972 78.202 151.12C78.202 150.41 77.7229 149.812 77.0705 149.632V120.184C77.0705 120.098 77.0418 120.017 76.9934 119.953H95.792C95.7915 119.962 95.7912 119.97 95.7912 119.979V133.093C95.7912 133.307 95.9639 133.479 96.1769 133.479C96.3899 133.479 96.5626 133.307 96.5626 133.093V119.979C96.5626 119.97 96.5624 119.962 96.5618 119.953H100.924C101.157 119.953 101.346 119.764 101.346 119.531C101.346 119.299 101.157 119.11 100.924 119.11H66.9387V66.4746C67.6172 66.3124 68.1216 65.7021 68.1216 64.9739C68.1216 64.1218 67.4308 63.431 66.5787 63.431C65.7266 63.431 65.0358 64.1218 65.0358 64.9739C65.0358 65.6836 65.5149 66.2813 66.1673 66.4614V95.7275C66.0945 95.6678 66.0014 95.6319 65.9 95.6319H38.4564C38.4327 95.6319 38.4094 95.6339 38.3867 95.6376C38.2019 94.9927 37.6077 94.5207 36.9034 94.5207C36.0512 94.5207 35.3604 95.2115 35.3604 96.0636C35.3604 96.9157 36.0512 97.6065 36.9034 97.6065C37.6148 97.6065 38.2137 97.125 38.3921 96.4702C38.4131 96.4734 38.4345 96.475 38.4564 96.475H65.9C66.0014 96.475 66.0945 96.4392 66.1673 96.3795V119.11H51.3654C51.3245 119.11 51.2849 119.116 51.2474 119.127C51.0662 118.476 50.4693 117.999 49.761 117.999C48.9088 117.999 48.218 118.689 48.218 119.542C48.218 120.394 48.9088 121.084 49.761 121.084C50.4761 121.084 51.0777 120.598 51.2525 119.938C51.2885 119.948 51.3263 119.953 51.3654 119.953H66.1673V142.895C65.5149 143.075 65.0358 143.673 65.0358 144.382C65.0358 145.235 65.7266 145.925 66.5787 145.925C67.4308 145.925 68.1216 145.235 68.1216 144.382ZM66.5787 64.4596C66.8627 64.4596 67.093 64.6899 67.093 64.9739C67.093 65.258 66.8627 65.4882 66.5787 65.4882C66.2947 65.4882 66.0644 65.258 66.0644 64.9739C66.0644 64.6899 66.2947 64.4596 66.5787 64.4596ZM67.093 144.382C67.093 144.098 66.8627 143.868 66.5787 143.868C66.2947 143.868 66.0644 144.098 66.0644 144.382C66.0644 144.667 66.2947 144.897 66.5787 144.897C66.8627 144.897 67.093 144.667 67.093 144.382ZM76.1448 151.12C76.1448 150.882 76.3065 150.682 76.5261 150.623C76.5745 150.645 76.6282 150.657 76.6848 150.657C76.7331 150.657 76.7793 150.648 76.8219 150.632C77.0262 150.7 77.1734 150.893 77.1734 151.12C77.1734 151.404 76.9431 151.634 76.6591 151.634C76.375 151.634 76.1448 151.404 76.1448 151.12ZM36.389 96.0636C36.389 95.7796 36.6193 95.5493 36.9034 95.5493C37.1874 95.5493 37.4177 95.7796 37.4177 96.0636C37.4177 96.3476 37.1874 96.5779 36.9034 96.5779C36.6193 96.5779 36.389 96.3476 36.389 96.0636ZM49.2467 119.542C49.2467 119.258 49.4769 119.027 49.761 119.027C50.045 119.027 50.2753 119.258 50.2753 119.542C50.2753 119.826 50.045 120.056 49.761 120.056C49.4769 120.056 49.2467 119.826 49.2467 119.542Z" stroke="#0A1C3B" stroke-width="0.102861" mask="url(#path-1-outside-1_223_4574)"/>
<path fill-rule="evenodd" clip-rule="evenodd" d="M86.7909 124.607V136.659C87.4693 136.821 87.9738 137.431 87.9738 138.159C87.9738 139.012 87.283 139.702 86.4308 139.702C85.5787 139.702 84.8879 139.012 84.8879 138.159C84.8879 137.45 85.367 136.852 86.0194 136.672V124.607C86.0194 124.394 86.1921 124.222 86.4051 124.222C86.6182 124.222 86.7909 124.394 86.7909 124.607ZM86.9451 138.159C86.9451 137.875 86.7149 137.645 86.4308 137.645C86.1468 137.645 85.9165 137.875 85.9165 138.159C85.9165 138.443 86.1468 138.674 86.4308 138.674C86.7149 138.674 86.9451 138.443 86.9451 138.159Z" stroke="#0A1C3B" stroke-width="0.102861" mask="url(#path-1-outside-1_223_4574)"/>
<path fill-rule="evenodd" clip-rule="evenodd" d="M86.0194 76.4172C86.0194 76.6302 86.1921 76.8029 86.4051 76.8029C86.6182 76.8029 86.7909 76.6302 86.7909 76.4172V64.331C86.7909 64.2337 86.7548 64.1449 86.6954 64.077C87.4215 63.9515 87.9738 63.3186 87.9738 62.5567C87.9738 61.7046 87.283 61.0138 86.4308 61.0138C85.5787 61.0138 84.8879 61.7046 84.8879 62.5567C84.8879 63.3032 85.418 63.9258 86.1223 64.0687C86.0584 64.1376 86.0194 64.2297 86.0194 64.331V76.4172ZM86.9451 62.5567C86.9451 62.2726 86.7149 62.0424 86.4308 62.0424C86.1468 62.0424 85.9165 62.2726 85.9165 62.5567C85.9165 62.8407 86.1468 63.071 86.4308 63.071C86.7149 63.071 86.9451 62.8407 86.9451 62.5567Z" stroke="#0A1C3B" stroke-width="0.102861" mask="url(#path-1-outside-1_223_4574)"/>
<path fill-rule="evenodd" clip-rule="evenodd" d="M136.267 103.804C136.267 104.656 135.576 105.347 134.724 105.347C134.02 105.347 133.425 104.875 133.241 104.23C133.218 104.234 133.195 104.236 133.171 104.236H105.727C105.495 104.236 105.306 104.047 105.306 103.814C105.306 103.581 105.495 103.392 105.727 103.392H133.171C133.193 103.392 133.214 103.394 133.235 103.397C133.414 102.742 134.013 102.261 134.724 102.261C135.576 102.261 136.267 102.952 136.267 103.804ZM135.238 103.804C135.238 104.088 135.008 104.318 134.724 104.318C134.44 104.318 134.21 104.088 134.21 103.804C134.21 103.52 134.44 103.29 134.724 103.29C135.008 103.29 135.238 103.52 135.238 103.804Z" stroke="#0A1C3B" stroke-width="0.102861" mask="url(#path-1-outside-1_223_4574)"/>
<path fill-rule="evenodd" clip-rule="evenodd" d="M138.324 113.524C138.324 114.376 137.633 115.067 136.781 115.067C136.017 115.067 135.383 114.512 135.26 113.783C135.183 113.888 135.059 113.956 134.92 113.956H112.619C112.386 113.956 112.197 113.767 112.197 113.534C112.197 113.302 112.386 113.113 112.619 113.113H134.92C135.058 113.113 135.18 113.179 135.257 113.282C135.373 112.545 136.012 111.981 136.781 111.981C137.633 111.981 138.324 112.672 138.324 113.524ZM137.296 113.524C137.296 113.808 137.065 114.039 136.781 114.039C136.497 114.039 136.267 113.808 136.267 113.524C136.267 113.24 136.497 113.01 136.781 113.01C137.065 113.01 137.296 113.24 137.296 113.524Z" stroke="#0A1C3B" stroke-width="0.102861" mask="url(#path-1-outside-1_223_4574)"/>
<path fill-rule="evenodd" clip-rule="evenodd" d="M108.083 93.6464C107.87 93.6464 107.697 93.8191 107.697 94.0321C107.697 94.2451 107.87 94.4178 108.083 94.4178H120.169C120.266 94.4178 120.355 94.3818 120.423 94.3224C120.549 95.0484 121.182 95.6007 121.944 95.6007C122.796 95.6007 123.486 94.9099 123.486 94.0578C123.486 93.2057 122.796 92.5149 121.944 92.5149C121.197 92.5149 120.574 93.045 120.431 93.7493C120.363 93.6854 120.27 93.6464 120.169 93.6464H108.083ZM121.944 94.5721C122.228 94.5721 122.458 94.3419 122.458 94.0578C122.458 93.7738 122.228 93.5435 121.944 93.5435C121.66 93.5435 121.429 93.7738 121.429 94.0578C121.429 94.3419 121.66 94.5721 121.944 94.5721Z" stroke="#0A1C3B" stroke-width="0.102861" mask="url(#path-1-outside-1_223_4574)"/>
<path fill-rule="evenodd" clip-rule="evenodd" d="M122.098 123.707C122.311 123.707 122.484 123.535 122.484 123.322C122.484 123.109 122.311 122.936 122.098 122.936H115.241C115.079 122.258 114.469 121.753 113.74 121.753C112.888 121.753 112.197 122.444 112.197 123.296C112.197 124.148 112.888 124.839 113.74 124.839C114.45 124.839 115.048 124.36 115.228 123.707H122.098ZM113.74 122.782C113.456 122.782 113.226 123.012 113.226 123.296C113.226 123.58 113.456 123.81 113.74 123.81C114.024 123.81 114.255 123.58 114.255 123.296C114.255 123.012 114.024 122.782 113.74 122.782Z" stroke="#0A1C3B" stroke-width="0.102861" mask="url(#path-1-outside-1_223_4574)"/>
<path fill-rule="evenodd" clip-rule="evenodd" d="M33.3032 86.3433C33.3032 85.4911 33.994 84.8003 34.8461 84.8003C35.61 84.8003 36.2443 85.3555 36.3674 86.0843C36.4441 85.9796 36.568 85.9116 36.7077 85.9116H59.0083C59.2411 85.9116 59.4299 86.1003 59.4299 86.3331C59.4299 86.566 59.2411 86.7547 59.0083 86.7547H36.7077C36.5696 86.7547 36.447 86.6883 36.3701 86.5856C36.2538 87.3226 35.6158 87.8862 34.8461 87.8862C33.994 87.8862 33.3032 87.1954 33.3032 86.3433ZM34.3318 86.3433C34.3318 86.0592 34.5621 85.8289 34.8461 85.8289C35.1302 85.8289 35.3604 86.0592 35.3604 86.3433C35.3604 86.6273 35.1302 86.8576 34.8461 86.8576C34.5621 86.8576 34.3318 86.6273 34.3318 86.3433Z" stroke="#0A1C3B" stroke-width="0.102861" mask="url(#path-1-outside-1_223_4574)"/>
<path fill-rule="evenodd" clip-rule="evenodd" d="M63.5443 106.221C63.7573 106.221 63.93 106.048 63.93 105.835C63.93 105.622 63.7573 105.45 63.5443 105.45H51.4582C51.3609 105.45 51.272 105.486 51.2041 105.545C51.0787 104.819 50.4457 104.267 49.6838 104.267C48.8317 104.267 48.1409 104.958 48.1409 105.81C48.1409 106.662 48.8317 107.353 49.6838 107.353C50.4303 107.353 51.0529 106.822 51.1959 106.118C51.2647 106.182 51.3569 106.221 51.4582 106.221H63.5443ZM49.6838 105.295C49.3998 105.295 49.1695 105.526 49.1695 105.81C49.1695 106.094 49.3998 106.324 49.6838 106.324C49.9679 106.324 50.1981 106.094 50.1981 105.81C50.1981 105.526 49.9679 105.295 49.6838 105.295Z" stroke="#0A1C3B" stroke-width="0.102861" mask="url(#path-1-outside-1_223_4574)"/>
<path fill-rule="evenodd" clip-rule="evenodd" d="M49.5295 76.16C49.3165 76.16 49.1438 76.3327 49.1438 76.5458C49.1438 76.7588 49.3165 76.9315 49.5295 76.9315H56.3863C56.5484 77.61 57.1588 78.1144 57.887 78.1144C58.7391 78.1144 59.4299 77.4236 59.4299 76.5715C59.4299 75.7193 58.7391 75.0286 57.887 75.0286C57.1773 75.0286 56.5796 75.5076 56.3995 76.16H49.5295ZM57.887 77.0858C58.171 77.0858 58.4013 76.8555 58.4013 76.5715C58.4013 76.2874 58.171 76.0572 57.887 76.0572C57.6029 76.0572 57.3727 76.2874 57.3727 76.5715C57.3727 76.8555 57.6029 77.0858 57.887 77.0858Z" stroke="#0A1C3B" stroke-width="0.102861" mask="url(#path-1-outside-1_223_4574)"/>
<path d="M77.7421 91.1596L73.2068 111.621H78.0585L80.3789 101.004L78.2695 91.1596H77.7421Z" stroke="#0A1C3B" stroke-width="0.102861" mask="url(#path-1-outside-1_223_4574)"/>
<path d="M81.7501 103.781L80.6953 108.633H84.3517L85.0549 111.621H89.9769L84.1759 87.011H79.289L83.0157 103.781H81.7501Z" stroke="#0A1C3B" stroke-width="0.102861" mask="url(#path-1-outside-1_223_4574)"/>
<path d="M92.1215 87.011V111.621H97.0787V87.011H92.1215Z" stroke="#0A1C3B" stroke-width="0.102861" mask="url(#path-1-outside-1_223_4574)"/>
<path d="M148.519 168.201C160.988 150.566 168.555 127.39 168.555 102.004C168.555 46.7754 132.738 2.00391 88.5554 2.00391C82.1409 2.00391 75.9027 2.94759 69.9248 4.72995C103.433 1.63845 139.326 35.6956 152.744 85.1859C155.396 94.9649 156.986 104.667 157.595 114.051C156.839 123.632 154.97 132.796 152.153 141.336C154.411 123.75 152.858 103.995 146.942 84.1082C146.761 83.4998 146.577 82.8938 146.389 82.2901C152.912 105.842 153.207 128.957 148.35 148.15C147.945 150.213 147.483 152.238 146.966 154.219C146.51 155.967 146.01 157.681 145.469 159.359C150.676 150.904 154.807 141.366 157.617 131.065C157.609 131.183 157.601 131.301 157.593 131.419C157.72 130.87 157.843 130.32 157.963 129.767C158.068 129.361 158.172 128.954 158.274 128.546C159.758 121.124 160.573 113.372 160.636 105.398C160.639 105.031 160.64 104.663 160.64 104.295C160.639 103.299 160.627 102.299 160.602 101.297C159.329 49.0339 126.201 6.91964 85.203 3.48171C85.0054 3.41699 84.8076 3.35339 84.6098 3.29092C127.098 4.70523 161.962 47.6556 163.269 101.297C163.498 110.717 162.678 119.858 160.94 128.546C159.67 133.648 158.079 138.572 156.196 143.283C154.647 152.371 152.054 160.778 148.519 168.201Z" fill="#0A1C3B"/>
<path d="M14.5093 64.0783C18.1289 53.0478 23.2801 43.0052 29.6321 34.3638C18.127 56.2884 15.296 87.7636 24.0574 120.077C36.7529 166.901 69.5661 199.91 101.444 200.713C97.2483 201.562 92.9431 202.004 88.5554 202.004C44.3726 202.004 8.5554 157.232 8.5554 102.004C8.5554 100.361 8.58709 98.7273 8.64976 97.1038C7.46211 86.192 7.58184 75.6118 8.91106 65.7288C4.99528 77.8211 2.97506 91.1499 3.31555 105.128C3.55725 115.051 4.962 124.566 7.35381 133.486C4.06837 123.011 2.14144 111.681 1.85273 99.8286C1.62327 90.4084 2.44356 81.2672 4.18146 72.5786C6.07762 64.9614 8.68984 57.7373 11.9227 51.0319C13.559 47.638 15.3543 44.3769 17.2963 41.2649C15.8762 45.3752 14.7155 49.7133 13.8267 54.2379C11.7528 62.4326 10.6183 71.3423 10.5067 80.6957C10.4931 81.8666 10.4951 83.0439 10.5131 84.2273C10.7039 96.6131 12.6661 109.701 16.5872 122.883C27.322 158.972 49.9677 186.447 74.4768 196.954C75.7984 197.179 77.1297 197.363 78.4698 197.505C53.4542 187.434 30.1821 159.622 19.2538 122.883C13.1245 102.278 11.7817 81.901 14.5093 64.0783Z" fill="#0A1C3B"/>
<path d="M106.815 163.774C106.373 162.243 106.018 160.709 105.752 159.181C106.465 160.877 107.323 162.571 108.319 164.248C112.357 171.958 119.344 179.433 128.556 185.1C142.365 193.594 157.545 195.792 168.269 191.908C167.122 192.734 165.919 193.465 164.671 194.102C161.609 194.756 158.315 195.001 154.892 194.842C146.322 194.446 136.85 191.526 127.965 186.061C120.395 181.404 114.27 175.526 110.012 169.255C112.19 174.171 115.314 178.941 119.365 183.249C122.24 186.308 125.368 188.91 128.638 191.046C124.647 188.672 120.843 185.645 117.409 181.992C114.679 179.088 112.358 175.976 110.454 172.748C108.903 169.813 107.688 166.8 106.815 163.774Z" fill="#0A1C3B"/>
<path d="M148.519 168.201C160.988 150.566 168.555 127.39 168.555 102.004C168.555 46.7754 132.738 2.00391 88.5554 2.00391C82.1409 2.00391 75.9027 2.94759 69.9248 4.72995C103.433 1.63845 139.326 35.6956 152.744 85.1859C155.396 94.9649 156.986 104.667 157.595 114.051C156.839 123.632 154.97 132.796 152.153 141.336C154.411 123.75 152.858 103.995 146.942 84.1082C146.761 83.4998 146.577 82.8938 146.389 82.2901C152.912 105.842 153.207 128.957 148.35 148.15C147.945 150.213 147.483 152.238 146.966 154.219C146.51 155.967 146.01 157.681 145.469 159.359C150.676 150.904 154.807 141.366 157.617 131.065C157.609 131.183 157.601 131.301 157.593 131.419C157.72 130.87 157.843 130.32 157.963 129.767C158.068 129.361 158.172 128.954 158.274 128.546C159.758 121.124 160.573 113.372 160.636 105.398C160.639 105.031 160.64 104.663 160.64 104.295C160.639 103.299 160.627 102.299 160.602 101.297C159.329 49.0339 126.201 6.91964 85.203 3.48171C85.0054 3.41699 84.8076 3.35339 84.6098 3.29092C127.098 4.70523 161.962 47.6556 163.269 101.297C163.498 110.717 162.678 119.858 160.94 128.546C159.67 133.648 158.079 138.572 156.196 143.283C154.647 152.371 152.054 160.778 148.519 168.201Z" stroke="#0A1C3B" stroke-width="2.66667"/>
<path d="M14.5093 64.0783C18.1289 53.0478 23.2801 43.0052 29.6321 34.3638C18.127 56.2884 15.296 87.7636 24.0574 120.077C36.7529 166.901 69.5661 199.91 101.444 200.713C97.2483 201.562 92.9431 202.004 88.5554 202.004C44.3726 202.004 8.5554 157.232 8.5554 102.004C8.5554 100.361 8.58709 98.7273 8.64976 97.1038C7.46211 86.192 7.58184 75.6118 8.91106 65.7288C4.99528 77.8211 2.97506 91.1499 3.31555 105.128C3.55725 115.051 4.962 124.566 7.35381 133.486C4.06837 123.011 2.14144 111.681 1.85273 99.8286C1.62327 90.4084 2.44356 81.2672 4.18146 72.5786C6.07762 64.9614 8.68984 57.7373 11.9227 51.0319C13.559 47.638 15.3543 44.3769 17.2963 41.2649C15.8762 45.3752 14.7155 49.7133 13.8267 54.2379C11.7528 62.4326 10.6183 71.3423 10.5067 80.6957C10.4931 81.8666 10.4951 83.0439 10.5131 84.2273C10.7039 96.6131 12.6661 109.701 16.5872 122.883C27.322 158.972 49.9677 186.447 74.4768 196.954C75.7984 197.179 77.1297 197.363 78.4698 197.505C53.4542 187.434 30.1821 159.622 19.2538 122.883C13.1245 102.278 11.7817 81.901 14.5093 64.0783Z" stroke="#0A1C3B" stroke-width="2.66667"/>
<path d="M106.815 163.774C106.373 162.243 106.018 160.709 105.752 159.181C106.465 160.877 107.323 162.571 108.319 164.248C112.357 171.958 119.344 179.433 128.556 185.1C142.365 193.594 157.545 195.792 168.269 191.908C167.122 192.734 165.919 193.465 164.671 194.102C161.609 194.756 158.315 195.001 154.892 194.842C146.322 194.446 136.85 191.526 127.965 186.061C120.395 181.404 114.27 175.526 110.012 169.255C112.19 174.171 115.314 178.941 119.365 183.249C122.24 186.308 125.368 188.91 128.638 191.046C124.647 188.672 120.843 185.645 117.409 181.992C114.679 179.088 112.358 175.976 110.454 172.748C108.903 169.813 107.688 166.8 106.815 163.774Z" stroke="#0A1C3B" stroke-width="2.66667"/>
</svg>
