<svg width="24" height="24" viewBox="0 0 24 24" fill="none" xmlns="http://www.w3.org/2000/svg">
<path fill-rule="evenodd" clip-rule="evenodd" d="M19.3125 0C21.9013 0 24 2.09867 24 4.6875V19.3125C24 21.9013 21.9013 24 19.3125 24H4.6875C2.09867 24 0 21.9013 0 19.3125V4.6875C0 2.09867 2.09867 0 4.6875 0H19.3125ZM12.5625 2.0625C12.5625 1.54473 12.9822 1.125 13.5 1.125H19.3125C21.28 1.125 22.875 2.71999 22.875 4.6875V19.3125C22.875 21.28 21.28 22.875 19.3125 22.875H13.5C12.9822 22.875 12.5625 22.4553 12.5625 21.9375V2.0625ZM11.4375 21.9375C11.4375 22.4553 11.0178 22.875 10.5 22.875H4.6875C2.71999 22.875 1.125 21.28 1.125 19.3125V4.6875C1.125 2.71999 2.71999 1.125 4.6875 1.125H10.5C11.0178 1.125 11.4375 1.54473 11.4375 2.0625V21.9375Z" fill="#F8F6F0"/>
<rect x="2.625" y="5.8125" width="7.03125" height="1.125" rx="0.5625" fill="#F8F6F0"/>
<rect x="2.625" y="8.0625" width="4.6875" height="1.125" rx="0.5625" fill="#F8F6F0"/>
<rect x="2.625" y="10.3125" width="7.03125" height="1.125" rx="0.5625" fill="#F8F6F0"/>
<rect x="2.625" y="12.5625" width="7.03125" height="1.125" rx="0.5625" fill="#F8F6F0"/>
<rect x="2.625" y="14.8125" width="4.6875" height="1.125" rx="0.5625" fill="#F8F6F0"/>
<rect x="2.625" y="17.0625" width="7.03125" height="1.125" rx="0.5625" fill="#F8F6F0"/>
<path fill-rule="evenodd" clip-rule="evenodd" d="M16.0779 11.9512L16.1234 11.9967L16.4046 12.2779L19.0069 14.8802C19.2265 15.0998 19.5827 15.0998 19.8024 14.8802C20.022 14.6605 20.022 14.3043 19.8024 14.0847L19.0751 13.3574C18.0396 12.3219 18.0396 10.643 19.0751 9.60742L19.7569 8.92566C19.9765 8.70599 19.9765 8.34984 19.7569 8.13017C19.5372 7.9105 19.1811 7.9105 18.9614 8.13017L16.0779 11.0137C15.819 11.2726 15.819 11.6923 16.0779 11.9512Z" fill="#F8F6F0"/>
</svg>
