<svg width="24" height="24" viewBox="0 0 24 24" fill="none" xmlns="http://www.w3.org/2000/svg">
<g clip-path="url(#clip0_215_4042)">
<path opacity="0.976" fill-rule="evenodd" clip-rule="evenodd" d="M16.2891 -0.0234375C16.7422 -0.0234375 17.1953 -0.0234375 17.6484 -0.0234375C18.4062 0.113076 19.0937 0.417764 19.7109 0.890625C20.2045 1.36856 20.6811 1.86075 21.1406 2.36719C22.3188 4.03204 22.3969 5.75077 21.375 7.52344C21.2656 7.66406 21.1562 7.80469 21.0469 7.94531C17.4128 11.595 13.7643 15.2279 10.1016 18.8438C9.81272 19.035 9.5002 19.1756 9.16406 19.2656C7.548 19.592 5.93081 19.9123 4.3125 20.2266C2.96024 20.1395 2.14774 19.4364 1.875 18.1172C1.84375 17.8359 1.84375 17.5547 1.875 17.2734C2.18151 15.7878 2.49401 14.3034 2.8125 12.8203C2.93882 12.427 3.12632 12.0676 3.375 11.7422C6.9922 8.12498 10.6094 4.50781 14.2266 0.890625C14.8438 0.417764 15.5313 0.113076 16.2891 -0.0234375ZM16.5703 2.41406C17.0357 2.36496 17.4732 2.4509 17.8828 2.67188C18.3736 3.11577 18.8502 3.57671 19.3125 4.05469C19.856 4.84805 19.8404 5.62927 19.2656 6.39844C15.7253 9.92316 12.2018 13.4622 8.69531 17.0156C7.23338 17.2762 5.77242 17.534 4.3125 17.7891C4.5571 16.316 4.83834 14.8472 5.15625 13.3828C8.69531 9.84375 12.2344 6.30469 15.7734 2.76562C16.0253 2.60658 16.2908 2.4894 16.5703 2.41406Z" fill="url(#paint0_linear_215_4042)"/>
<path opacity="0.98" fill-rule="evenodd" clip-rule="evenodd" d="M21.0702 23.9779C14.9451 23.9779 8.82018 23.9779 2.69516 23.9779C1.8826 23.5638 1.67166 22.9387 2.06235 22.1029C2.20731 21.8953 2.40262 21.7625 2.64829 21.7045C5.72474 21.6502 8.80288 21.6267 11.8827 21.6341C14.9624 21.6267 18.0406 21.6502 21.117 21.7045C21.942 22.0904 22.153 22.692 21.7498 23.5091C21.5634 23.7307 21.3368 23.8869 21.0702 23.9779Z" fill="url(#paint1_linear_215_4042)"/>
</g>
<defs>
<linearGradient id="paint0_linear_215_4042" x1="9.51067" y1="-2.99886" x2="9.51067" y2="19.782" gradientUnits="userSpaceOnUse">
<stop stop-color="#F5F5F5" stop-opacity="0.6"/>
<stop offset="1" stop-color="#F5F5F5" stop-opacity="0.1"/>
</linearGradient>
<linearGradient id="paint1_linear_215_4042" x1="9.47092" y1="21.2882" x2="9.47092" y2="23.9264" gradientUnits="userSpaceOnUse">
<stop stop-color="#F5F5F5" stop-opacity="0.6"/>
<stop offset="1" stop-color="#F5F5F5" stop-opacity="0.1"/>
</linearGradient>
<clipPath id="clip0_215_4042">
<rect width="24" height="24" fill="white"/>
</clipPath>
</defs>
</svg>
